/* XPM */
static const char * stock_getcard_xpm[] = {
"24 24 197 2",
"  	c None",
". 	c #F1EAAB",
"+ 	c #E0D69E",
"@ 	c #D7CC98",
"# 	c #DED59D",
"$ 	c #C9B789",
"% 	c #BF9874",
"& 	c #AB8165",
"* 	c #7E5143",
"= 	c #673D36",
"- 	c #583431",
"; 	c #603B36",
"> 	c #7D5E4E",
", 	c #A08064",
"' 	c #AD8769",
") 	c #DDBE8D",
"! 	c #E7CF97",
"~ 	c #EDDA9F",
"{ 	c #EBD79F",
"] 	c #BE9A77",
"^ 	c #885849",
"/ 	c #8C5C4C",
"( 	c #653B37",
"_ 	c #78594B",
": 	c #D2B688",
"< 	c #E3CF98",
"[ 	c #FAF2B0",
"} 	c #FEF9B5",
"| 	c #FEFBB6",
"1 	c #FCF8B4",
"2 	c #F6EDAC",
"3 	c #EED9A1",
"4 	c #D5AE85",
"5 	c #845648",
"6 	c #653E39",
"7 	c #593332",
"8 	c #6C4941",
"9 	c #C1A77D",
"0 	c #F5EAAB",
"a 	c #FCF6B3",
"b 	c #FAF4B1",
"c 	c #FFFCB7",
"d 	c #FCF8B5",
"e 	c #FCF7B4",
"f 	c #F9F1B0",
"g 	c #DDB689",
"h 	c #956A55",
"i 	c #684038",
"j 	c #583231",
"k 	c #553230",
"l 	c #7E5E4F",
"m 	c #E6D49D",
"n 	c #D9C390",
"o 	c #F6ECAC",
"p 	c #FAF3B1",
"q 	c #FBF5B2",
"r 	c #F4EBAB",
"s 	c #E4D69D",
"t 	c #CEBA8A",
"u 	c #AD9370",
"v 	c #8C6B56",
"w 	c #B9A57E",
"x 	c #E7D49C",
"y 	c #F1E5A7",
"z 	c #F5EEAF",
"A 	c #7B584A",
"B 	c #F8F0AF",
"C 	c #F3E9A9",
"D 	c #E6DBA0",
"E 	c #DBCF97",
"F 	c #DACC95",
"G 	c #E3D79D",
"H 	c #DBCD96",
"I 	c #DFD298",
"J 	c #FDFAB6",
"K 	c #E4D9A0",
"L 	c #E2D79D",
"M 	c #F1E9AB",
"N 	c #603936",
"O 	c #F3EBAC",
"P 	c #FBF6B3",
"Q 	c #E8D99F",
"R 	c #A28165",
"S 	c #EBDEA6",
"T 	c #CBB98D",
"U 	c #D2C08F",
"V 	c #F3E9AA",
"W 	c #BAA47B",
"X 	c #E7DAA0",
"Y 	c #D9C794",
"Z 	c #D6C691",
"` 	c #ECE2A6",
" .	c #DECF9A",
"..	c #FBF4B2",
"+.	c #F0E3A5",
"@.	c #A5896A",
"#.	c #FEFCBA",
"$.	c #CCBE8F",
"%.	c #AD8F6E",
"&.	c #D7C792",
"*.	c #A28667",
"=.	c #DED19A",
"-.	c #553130",
";.	c #D6C694",
">.	c #EFE5A7",
",.	c #A98D6C",
"'.	c #FDFBB8",
").	c #C6B688",
"!.	c #DCCE97",
"~.	c #EFE5A8",
"{.	c #A18467",
"].	c #FEFAB6",
"^.	c #C3AF83",
"/.	c #E9DFA4",
"(.	c #D2C391",
"_.	c #583332",
":.	c #E2D59D",
"<.	c #E7D69C",
"[.	c #F9F0AE",
"}.	c #FDF9B5",
"|.	c #C2AA80",
"1.	c #D3C08F",
"2.	c #D5C391",
"3.	c #D6C490",
"4.	c #CAB587",
"5.	c #C1A97F",
"6.	c #CDB989",
"7.	c #B8A078",
"8.	c #C3AB82",
"9.	c #C7B687",
"0.	c #5C3733",
"a.	c #E9D59C",
"b.	c #F3E9A7",
"c.	c #BAA77F",
"d.	c #81614F",
"e.	c #F7EDAC",
"f.	c #FCF5B2",
"g.	c #AC9572",
"h.	c #000000",
"i.	c #F6EEAD",
"j.	c #FAF4B2",
"k.	c #F4E9A9",
"l.	c #CEAD82",
"m.	c #9B8267",
"n.	c #A18C6D",
"o.	c #B79C76",
"p.	c #5A7759",
"q.	c #6E926D",
"r.	c #F8F5B1",
"s.	c #FEFBB8",
"t.	c #FDFAB7",
"u.	c #F8F1B1",
"v.	c #C09C79",
"w.	c #785248",
"x.	c #54302F",
"y.	c #745045",
"z.	c #F3EAAA",
"A.	c #F2E8AA",
"B.	c #FFFBB7",
"C.	c #FFFBB6",
"D.	c #F9F2AF",
"E.	c #DABC8E",
"F.	c #977166",
"G.	c #603C38",
"H.	c #A6896A",
"I.	c #E6D199",
"J.	c #EFDEA3",
"K.	c #F4E9AA",
"L.	c #EAD79D",
"M.	c #C8AB81",
"N.	c #9A6C57",
"O.	c #8C6350",
"P.	c #D9C993",
"Q.	c #DFC392",
"R.	c #CFA87F",
"S.	c #8E6351",
"T.	c #865749",
"U.	c #B99673",
"V.	c #E9D49C",
"W.	c #9D6C57",
"X.	c #653F38",
"Y.	c #A77D62",
"Z.	c #496148",
"`.	c #809F7F",
" +	c #A77F62",
".+	c #623C36",
"++	c #CAB185",
"@+	c #EBD19B",
"#+	c #C8A57E",
"$+	c #7F5848",
"%+	c #CA9C77",
"&+	c #DCC391",
"*+	c #E3D49C",
"=+	c #9F745C",
"-+	c #D9BB8C",
";+	c #C5A87F",
">+	c #DBB487",
"                    . + @ #                     ",
"                $ % & * = - ; >                 ",
"              , ' ) ! ~ { ] ^ / ( _             ",
"            : < [ } | 1 2 3 4 5 6 7 8           ",
"          9 0 a b a c d e f g h i j k l         ",
"        m n o p 1 e c c c c q r s t u v w       ",
"        x y c c c c c c c c c c c c c z A       ",
"        B C c c D E F G H I J K L J c M N O     ",
"        0 P c c Q R S T U V W X Y Z c ` j  .    ",
"        ..+.c c c @.#.$.%.&.*.c c c c =.-.;.    ",
"        >.c c c c ,.'.).!.~.{.].^./.c (._.:.    ",
"        <.[.c c }.|.1.2.3.4.5.6.7.8.c 9.0.      ",
"        a.b.c c c c c c c c c c c c c c.d.      ",
"        e.f.c c c c c c c c c c c c c g.        ",
"    h.h.h.h.J c c c | i.j.a | k.l.m.n.o.        ",
"    h.p.q.h.r.c c c s.c t.c u.v.w.x.y.          ",
"    h.p.q.h.  z.A.e }.B.C.D.E.F.G.H.            ",
"    h.p.q.h.    I.J.K.o L.M.N.O.P.              ",
"    h.p.q.h.        Q.R.S.T.U.K.                ",
"h.h.h.p.q.h.h.h.    V.W.X.Y.                    ",
"  h.Z.q.`.q.h.         +.+++                    ",
"    h.p.q.h.        @+#+$+%+&+                  ",
"      h.h.          *+=+-+;+                    ",
"                      U.>+                      "};
