/* XPM */
static const char * stock_sendarmies_xpm[] = {
"24 24 9 1",
" 	c None",
".	c #000000",
"+	c #F6FF05",
"@	c #F90931",
"#	c #0512AA",
"$	c #6E926D",
"%	c #809F7F",
"&	c #5A7759",
"*	c #496148",
"                        ",
"                        ",
"         ....           ",
"        ..++..          ",
"       ..++++..         ",
"       .++++++.         ",
"      ..++++++.         ",
"     ....++++..         ",
"    ..@@..+....         ",
"    .@@@@...##..        ",
"    .@@@@..####..       ",
"    ..@@@.######.       ",
"     ..@@.######.       ",
"      .....####..       ",
"          ..##..        ",
"           ....    .    ",
"                   ..   ",
"              ......$.  ",
"              .$$$$$%$. ",
"              .&&&&&$&. ",
"              ......*.  ",
"                   ..   ",
"                   .    ",
"                        "};
