/* XPM */
static const char * stock_endturn_xpm[] = {
"24 24 150 2",
"  	c None",
". 	c #010000",
"+ 	c #080102",
"@ 	c #0E0203",
"# 	c #110305",
"$ 	c #140505",
"% 	c #150405",
"& 	c #130204",
"* 	c #020000",
"= 	c #030000",
"- 	c #B1A4A4",
"; 	c #CEBBBC",
"> 	c #DDCCCC",
", 	c #DDCCCD",
"' 	c #CBB6B7",
") 	c #B89A9B",
"! 	c #7D5E61",
"~ 	c #200607",
"{ 	c #270A0B",
"] 	c #A19999",
"^ 	c #DED1D1",
"/ 	c #F3E6E6",
"( 	c #EFE0E1",
"_ 	c #EBDCDD",
": 	c #EADCDC",
"< 	c #E4D7D7",
"[ 	c #E6D2D3",
"} 	c #E0C5C6",
"| 	c #AC7E7E",
"1 	c #643F3F",
"2 	c #2E0C0D",
"3 	c #050001",
"4 	c #DED1D2",
"5 	c #F4EBEB",
"6 	c #F1E6E6",
"7 	c #EBDFDF",
"8 	c #E4DBDA",
"9 	c #E5DBDB",
"0 	c #E2D3D3",
"a 	c #DDC3C4",
"b 	c #DBB3B6",
"c 	c #9F6D6D",
"d 	c #310D0D",
"e 	c #A39596",
"f 	c #F5ECEC",
"g 	c #EEE4E4",
"h 	c #E4DADA",
"i 	c #E5DEDD",
"j 	c #E5DDDD",
"k 	c #CBB3B4",
"l 	c #D8B9BB",
"m 	c #B88B8C",
"n 	c #633E3F",
"o 	c #250A0A",
"p 	c #BFB2B3",
"q 	c #EADEDE",
"r 	c #E6DCDC",
"s 	c #C3A9A9",
"t 	c #CBA5A6",
"u 	c #A57577",
"v 	c #2C0B0D",
"w 	c #0D0303",
"x 	c #D1C3C4",
"y 	c #EDE1E0",
"z 	c #E4DCDC",
"A 	c #DEC6C7",
"B 	c #CBAAAC",
"C 	c #B68B8F",
"D 	c #290A0C",
"E 	c #CCB9B9",
"F 	c #ECE1E1",
"G 	c #E3DAD9",
"H 	c #DFD1D0",
"I 	c #DECDCC",
"J 	c #CDB1B1",
"K 	c #CBA7A9",
"L 	c #B28487",
"M 	c #2B0A0C",
"N 	c #1B0607",
"O 	c #C9AFB0",
"P 	c #ECDFDF",
"Q 	c #E6DEDF",
"R 	c #DECFCF",
"S 	c #D0B4B6",
"T 	c #CBAAAB",
"U 	c #C09699",
"V 	c #A17273",
"W 	c #2A0B0C",
"X 	c #1A0507",
"Y 	c #AD8C8D",
"Z 	c #D6C0C0",
"` 	c #E1D0D1",
" .	c #BA8D8F",
"..	c #C69B9E",
"+.	c #B38083",
"@.	c #905E5F",
"#.	c #170405",
"$.	c #957273",
"%.	c #C6A3A5",
"&.	c #DAB9BA",
"*.	c #DCC4C4",
"=.	c #D8BEBF",
"-.	c #DCC6C7",
";.	c #E0C9CA",
">.	c #CFB3B4",
",.	c #C6999A",
"'.	c #C1A0A1",
").	c #BD8D8E",
"!.	c #A16C6E",
"~.	c #774748",
"{.	c #220809",
"].	c #1D0607",
"^.	c #B88D8F",
"/.	c #C79FA0",
"(.	c #D5B2B4",
"_.	c #D7BEBE",
":.	c #CCACAF",
"<.	c #D9BABC",
"[.	c #CBA5A7",
"}.	c #BF8B8C",
"|.	c #9E696A",
"1.	c #804F50",
"2.	c #000000",
"3.	c #1E0708",
"4.	c #A17477",
"5.	c #C3999B",
"6.	c #C69E9F",
"7.	c #C69B9C",
"8.	c #C59898",
"9.	c #BE8C8D",
"0.	c #B27C7D",
"a.	c #AB7475",
"b.	c #8C5A5B",
"c.	c #734849",
"d.	c #200606",
"e.	c #250909",
"f.	c #9E7070",
"g.	c #B98A8B",
"h.	c #B78888",
"i.	c #B17C7E",
"j.	c #9F6767",
"k.	c #6E926D",
"l.	c #1E0707",
"m.	c #230909",
"n.	c #270A0A",
"o.	c #2B0A0B",
"p.	c #2F0C0C",
"q.	c #809F7F",
"r.	c #5A7759",
"s.	c #496148",
"                                                ",
"                                                ",
"                                                ",
"                                                ",
"                . + @ # $ % &                   ",
"            * = - ; > , ' ) ! ~ {               ",
"          = ] ^ / ( _ : < [ } | 1 2             ",
"          3 4 5 6 7 8 8 9 0 a b c d             ",
"        3 e f g 7 7 8 h i j k l m n o           ",
"        + p 6 q 7 7 7 r r j j s t u v           ",
"        w x y q 8 7 z j j j z A B C D           ",
"        $ E F G j j j j j H I J K L M           ",
"        N O P Q Q j j j j R S T U V W           ",
"        X Y Z ` R R R R R R  ...+.@.D           ",
"        #.$.%.&.*.=.-.;.>.,.'.).!.~.{.          ",
"          ].^./.(._.:.<.[.,.}.|.1.D 2.          ",
"          3.4.5.6.7.,.8.9.0.a.b.c.].2.2.        ",
"            d.e.f.g.h.i.j.2.2.2.2.2.2.k.2.      ",
"                l.m.n.o.p.2.k.k.k.k.k.q.k.2.    ",
"                          2.r.r.r.r.r.k.r.2.    ",
"                          2.2.2.2.2.2.s.2.      ",
"                                    2.2.        ",
"                                    2.          ",
"                                                "};
