/* XPM */
static const char * stock_viewplayers_xpm[] = {
"24 24 9 1",
" 	c None",
".	c #000000",
"+	c #FFC747",
"@	c #E0DE84",
"#	c #A5730E",
"$	c #5A7759",
"%	c #6E926D",
"&	c #496148",
"*	c #809F7F",
"                        ",
"                        ",
"                        ",
"    .....       .....   ",
"   ..+++..     ..@@@..  ",
"  ..+++++..   ..@@@@@.. ",
"  .+..+..+.   .@..@..@. ",
"  .+++++++.   .@@@@@@@. ",
"  .+.+++.+.   .@.@@@.@. ",
"  ..+...+..   ..@...@.. ",
"   ..+++..     ..@@@..  ",
"    .....       .....   ",
"          .....         ",
"         ..###..        ",
"        ..#####..       ",
"  ....  .#..#..#.       ",
"  .$%.  .#######.       ",
"  .$%.  .#.###.#.       ",
"  .$%.  ..#...#..       ",
"...$%... ..###..        ",
" .&%*%.   .....         ",
"  .$%.                  ",
"   ..                   ",
"                        "};
