/* XPM */
static char * stock_zoom_1_xpm[] = {
"24 24 154 2",
"  	c None",
". 	c #000000",
"+ 	c #30302D",
"@ 	c #7E7E75",
"# 	c #B3B3A5",
"$ 	c #CFCFBE",
"% 	c #D2D2C1",
"& 	c #BABAAA",
"* 	c #848479",
"= 	c #31312D",
"- 	c #87877F",
"; 	c #D7D7CC",
"> 	c #DADACD",
", 	c #DADACC",
"' 	c #DADACB",
") 	c #DCDCCC",
"! 	c #DFDFCF",
"~ 	c #DEDECD",
"{ 	c #D9D9C8",
"] 	c #7E7E73",
"^ 	c #A6A69D",
"/ 	c #E2E2D9",
"( 	c #E9E9E2",
"_ 	c #EAEAE2",
": 	c #E6E6DB",
"< 	c #E3E3D5",
"[ 	c #E3E3D3",
"} 	c #DFDFCE",
"| 	c #D9D9C7",
"1 	c #D4D4C3",
"2 	c #929285",
"3 	c #86867E",
"4 	c #E0E0D8",
"5 	c #F0F0EB",
"6 	c #F8F8F5",
"7 	c #F7F7F3",
"8 	c #F0F0E9",
"9 	c #EAEADF",
"0 	c #E2E2D4",
"a 	c #DADACA",
"b 	c #D3D3C2",
"c 	c #CECEBD",
"d 	c #C9C9B8",
"e 	c #C4C4B4",
"f 	c #717168",
"g 	c #30302C",
"h 	c #D6D6CA",
"i 	c #E7E7DF",
"j 	c #F6F6F3",
"k 	c #F5F5EF",
"l 	c #DFDFD0",
"m 	c #D6D6C6",
"n 	c #BFBFAE",
"o 	c #B9B9AA",
"p 	c #282824",
"q 	c #D9D9CC",
"r 	c #E6E6DD",
"s 	c #D0D0C0",
"t 	c #B9B9A9",
"u 	c #B4B4A4",
"v 	c #68685F",
"w 	c #B3B3A6",
"x 	c #E4E4D8",
"y 	c #E7E7DC",
"z 	c #CACABA",
"A 	c #B3B3A4",
"B 	c #AEAE9F",
"C 	c #909083",
"D 	c #D1D1C0",
"E 	c #DBDBCC",
"F 	c #E8E8DB",
"G 	c #D2D2C3",
"H 	c #CACABB",
"I 	c #C3C3B3",
"J 	c #BDBDAD",
"K 	c #A9A99A",
"L 	c #A1A192",
"M 	c #D5D5C3",
"N 	c #E2E2D1",
"O 	c #D0D0C1",
"P 	c #C3C3B2",
"Q 	c #BDBDAC",
"R 	c #B7B7A8",
"S 	c #A8A899",
"T 	c #A3A395",
"U 	c #9B9B8D",
"V 	c #BDBDAE",
"W 	c #DBDBCA",
"X 	c #C8C8B8",
"Y 	c #B7B7A7",
"Z 	c #B2B2A2",
"` 	c #A3A394",
" .	c #9E9E8F",
"..	c #828275",
"+.	c #DADAC8",
"@.	c #D5D5C4",
"#.	c #D0D0BF",
"$.	c #C1C1B0",
"%.	c #B1B1A2",
"&.	c #ACAC9D",
"*.	c #9D9D8F",
"=.	c #98988A",
"-.	c #57574F",
";.	c #CACAB9",
">.	c #BBBBAB",
",.	c #B6B6A6",
"'.	c #B1B1A1",
").	c #A7A798",
"!.	c #989889",
"~.	c #1F1F1C",
"{.	c #7B7B71",
"].	c #C5C5B4",
"^.	c #C0C0AF",
"/.	c #BABAAB",
"(.	c #B5B5A6",
"_.	c #B0B0A1",
":.	c #ABAB9C",
"<.	c #A6A697",
"[.	c #A1A193",
"}.	c #9C9C8E",
"|.	c #979789",
"1.	c #929284",
"2.	c #53534B",
"3.	c #8D8D82",
"4.	c #BFBFAF",
"5.	c #B5B5A5",
"6.	c #B0B0A0",
"7.	c #9C9C8D",
"8.	c #969689",
"9.	c #919184",
"0.	c #65655C",
"a.	c #6E6E65",
"b.	c #B4B4A5",
"c.	c #AFAFA0",
"d.	c #AAAA9B",
"e.	c #A5A596",
"f.	c #A0A092",
"g.	c #969688",
"h.	c #919183",
"i.	c #241D14",
"j.	c #211100",
"k.	c #262623",
"l.	c #8C8C80",
"m.	c #9D9D8E",
"n.	c #7F7F74",
"o.	c #55554E",
"p.	c #E9D1B8",
"q.	c #A6825C",
"r.	c #582D00",
"s.	c #0B0600",
"t.	c #160B00",
"u.	c #4D2800",
"v.	c #371C00",
"w.	c #372B1F",
"              . . . . . .                       ",
"          . . . . . . . . . .                   ",
"        . . + @ # $ % & * = . .                 ",
"      . . - ; > , ' ) ! ~ { ] . .               ",
"    . . ^ / ( _ : < [ } | 1 $ 2 . .             ",
"  . . 3 4 5 6 7 8 9 0 a b c d e f . .           ",
"  . g h i j . . k 9 l m $ . . n o p .           ",
". . @ q r . . . 8 . . s . . . t u v . .         ",
". . w , x . . . y . . z . . . A B C . .         ",
". . D E 0 F . . > G H I J . . B K L . .         ",
". . M } N ! . . O z P Q R . . S T U . .         ",
". . V } W m . . X . . Y Z . . `  .... .         ",
". . * +.@.#.. . $.. . %.&.. . *.=.-.. .         ",
"  . g 1 $ ;.. . >.,.'.&.).. . !.2 ~..           ",
"  . . {.;.].^./.(._.:.<.[.}.|.1.2.. .           ",
"    . . 3.4.& 5.6.:.<.L 7.8.9.0.. . .           ",
"      . . a.b.c.d.e.f.U g.h.2.. . i.j..         ",
"        . . k.0.l.m.!.n.o.~.. . i.p.q.r.s.      ",
"          . . . . . . . . . . . t.q.p.q.r.s.    ",
"              . . . . . .       . u.q.p.q.r..   ",
"                                  s.r.q.p.q.v.. ",
"                                    s.r.q.p.q.. ",
"                                      s.u.q.p.. ",
"                                        . t.w.. "};
