<?xml version="1.0" encoding="UTF-8" standalone="no"?>
<!-- Created with Inkscape (http://www.inkscape.org/) -->

<svg
   width="64"
   height="64"
   viewBox="0 0 16.933333 16.933334"
   version="1.1"
   id="svg3456"
   inkscape:version="1.1.2 (0a00cf5339, 2022-02-04)"
   sodipodi:docname="stock-startgame-symbolic.svg"
   xmlns:inkscape="http://www.inkscape.org/namespaces/inkscape"
   xmlns:sodipodi="http://sodipodi.sourceforge.net/DTD/sodipodi-0.dtd"
   xmlns="http://www.w3.org/2000/svg"
   xmlns:svg="http://www.w3.org/2000/svg">
  <sodipodi:namedview
     id="namedview3458"
     pagecolor="#ffffff"
     bordercolor="#666666"
     borderopacity="1.0"
     inkscape:pageshadow="2"
     inkscape:pageopacity="0.0"
     inkscape:pagecheckerboard="0"
     inkscape:document-units="mm"
     showgrid="false"
     units="px"
     inkscape:zoom="0.74208053"
     inkscape:cx="49.186037"
     inkscape:cy="118.58551"
     inkscape:window-width="1920"
     inkscape:window-height="1011"
     inkscape:window-x="0"
     inkscape:window-y="32"
     inkscape:window-maximized="1"
     inkscape:current-layer="layer1" />
  <defs
     id="defs3453" />
  <g
     inkscape:label="Ebene 1"
     inkscape:groupmode="layer"
     id="layer1">
    <g
       id="g51738"
       transform="matrix(0.96448009,0,0,0.96448009,123.91502,-238.71783)">
      <path
         id="path34529"
         style="fill:#2e3434;fill-opacity:0.34902;stroke:#2e3434;stroke-width:0.0736122;stroke-opacity:0.34902"
         d="m -125.84182,259.79319 c -0.11911,0.0136 -0.23648,0.04 -0.35092,0.0808 -0.91629,0.6021 -1.16547,1.90199 -0.56155,3.71375 1.81176,0.60392 3.11165,0.35474 3.71375,-0.56155 0.0408,-0.11445 0.0672,-0.23181 0.0808,-0.35092 -0.71288,-0.29701 -1.30784,-0.65635 -1.79425,-1.08782 -0.43142,-0.48635 -0.79083,-1.08148 -1.08782,-1.79424 z" />
      <path
         id="path34531"
         style="fill:#2e3434;fill-opacity:0.34902;stroke:#2e3434;stroke-width:0.0943363;stroke-opacity:0.34902"
         d="m -111.32895,248.16239 c -5.04871,-0.60757 -10.2137,2.47609 -12.7443,6.49806 -0.2763,-0.30434 -0.61372,-0.51689 -1.02296,-0.64767 -2.18669,0.25034 -3.45749,2.07414 -2.99482,4.65529 0.96639,0.1274 1.83223,8.9e-4 2.54656,-0.32852 -0.007,0.039 -0.0145,0.0781 -0.0209,0.11707 0.39393,0.99259 0.87771,1.81319 1.46587,2.47626 0.66307,0.58817 1.48367,1.07196 2.47627,1.46587 0.039,-0.006 0.078,-0.014 0.11706,-0.0208 -0.3294,0.71432 -0.45592,1.58016 -0.32851,2.54656 2.58115,0.46266 4.40495,-0.80814 4.65529,-2.99483 -0.13078,-0.40924 -0.34334,-0.74666 -0.64767,-1.02295 4.02197,-2.53061 7.10563,-7.6956 6.49805,-12.74431 z m -3.10388,3.10389 a 2.6535206,2.6535205 0 0 1 10e-6,3.75288 2.6535206,2.6535205 0 0 1 -3.75263,-2.7e-4 2.6535206,2.6535205 0 0 1 -2.6e-4,-3.75261 2.6535206,2.6535205 0 0 1 3.75288,0 z" />
      <path
         id="path27352"
         style="fill:#2e3436;fill-opacity:1;stroke:#2e3434;stroke-width:0.0736122;stroke-opacity:0.34902"
         d="m -125.84182,259.26402 c -0.11911,0.0136 -0.23648,0.04 -0.35092,0.0808 -0.91629,0.6021 -1.16547,1.90199 -0.56155,3.71375 1.81176,0.60392 3.11165,0.35474 3.71375,-0.56155 0.0408,-0.11445 0.0672,-0.23181 0.0808,-0.35092 -0.71288,-0.29701 -1.30784,-0.65635 -1.79425,-1.08782 -0.43142,-0.48635 -0.79083,-1.08148 -1.08782,-1.79424 z" />
      <path
         id="path27358"
         style="fill:#2e3436;stroke:#2e3434;stroke-width:0.0943363;stroke-opacity:0.34902"
         d="m -111.32895,247.63322 c -5.04871,-0.60757 -10.2137,2.47609 -12.7443,6.49806 -0.2763,-0.30434 -0.61372,-0.51689 -1.02296,-0.64767 -2.18669,0.25034 -3.45749,2.07414 -2.99482,4.65529 0.96639,0.1274 1.83223,8.9e-4 2.54656,-0.32852 -0.007,0.039 -0.0145,0.0781 -0.0209,0.11707 0.39393,0.99259 0.87771,1.81319 1.46587,2.47626 0.66307,0.58817 1.48367,1.07196 2.47627,1.46587 0.039,-0.006 0.078,-0.014 0.11706,-0.0208 -0.3294,0.71432 -0.45592,1.58016 -0.32851,2.54656 2.58115,0.46266 4.40495,-0.80814 4.65529,-2.99483 -0.13078,-0.40924 -0.34334,-0.74666 -0.64767,-1.02295 4.02197,-2.53061 7.10563,-7.6956 6.49805,-12.74431 z m -3.10388,3.10389 a 2.6535206,2.6535205 0 0 1 10e-6,3.75288 2.6535206,2.6535205 0 0 1 -3.75263,-2.7e-4 2.6535206,2.6535205 0 0 1 -2.6e-4,-3.75261 2.6535206,2.6535205 0 0 1 3.75288,0 z" />
    </g>
  </g>
</svg>
