<?xml version="1.0" encoding="UTF-8" standalone="no"?>
<!-- Created with Inkscape (http://www.inkscape.org/) -->

<svg
   width="64"
   height="64"
   viewBox="0 0 16.933333 16.933334"
   version="1.1"
   id="svg3456"
   inkscape:version="1.1.2 (0a00cf5339, 2022-02-04)"
   sodipodi:docname="stock-sendarmies-symbolic.svg"
   xmlns:inkscape="http://www.inkscape.org/namespaces/inkscape"
   xmlns:sodipodi="http://sodipodi.sourceforge.net/DTD/sodipodi-0.dtd"
   xmlns="http://www.w3.org/2000/svg"
   xmlns:svg="http://www.w3.org/2000/svg">
  <sodipodi:namedview
     id="namedview3458"
     pagecolor="#ffffff"
     bordercolor="#666666"
     borderopacity="1.0"
     inkscape:pageshadow="2"
     inkscape:pageopacity="0.0"
     inkscape:pagecheckerboard="0"
     inkscape:document-units="mm"
     showgrid="false"
     units="px"
     inkscape:zoom="0.74208053"
     inkscape:cx="49.186037"
     inkscape:cy="118.58551"
     inkscape:window-width="1920"
     inkscape:window-height="1011"
     inkscape:window-x="0"
     inkscape:window-y="32"
     inkscape:window-maximized="1"
     inkscape:current-layer="layer1" />
  <defs
     id="defs3453" />
  <g
     inkscape:label="Ebene 1"
     inkscape:groupmode="layer"
     id="layer1">
    <g
       id="g54409"
       transform="translate(109.7208,-229.30024)">
      <g
         id="g25731"
         transform="matrix(1.0680981,0,0,1.0640341,-117.64939,-15.730772)"
         style="fill:#2e3434;fill-opacity:0.34902">
        <path
           id="path25721"
           style="fill:#2e3434;fill-opacity:0.34902;stroke-width:1.37021;stroke-linecap:round;stroke-linejoin:round"
           d="m 87.974609,880.23633 c -10.872617,0.0151 -21.744594,0.0299 -32.617187,0.0469 l 9.875,5.2793 -11.056641,5.91016 a 13,3.5541312 0 0 1 0.140625,0.0664 13,3.5541312 0 0 1 0.566406,0.30078 13,3.5541312 0 0 1 0.355469,0.23438 13,3.5541312 0 0 1 0.103516,0.0801 13,3.5541312 0 0 1 0.002,0 13,3.5541312 0 0 1 0.0957,0.0801 13,3.5541312 0 0 1 0.0918,0.0801 13,3.5541312 0 0 1 0.04687,0.0449 13,3.5541312 0 0 1 0.03516,0.0371 13,3.5541312 0 0 1 0.07813,0.082 13,3.5541312 0 0 1 0.06836,0.082 13,3.5541312 0 0 1 0.0625,0.084 13,3.5541312 0 0 1 0.101562,0.16602 13,3.5541312 0 0 1 0.04102,0.084 13,3.5541312 0 0 1 0.0332,0.084 13,3.5541312 0 0 1 0.02148,0.0684 13,3.5541312 0 0 1 0.0039,0.0156 13,3.5541312 0 0 1 0.0098,0.0391 13,3.5541312 0 0 1 0.002,0.0137 13,3.5541312 0 0 1 0.0078,0.0391 13,3.5541312 0 0 1 0.0078,0.0547 13,3.5541312 0 0 1 0.002,0.0234 13,3.5541312 0 0 1 0.002,0.0293 13,3.5541312 0 0 1 0.002,0.0547 v 3.55468 a 13,3.5541312 0 0 1 -2.861329,2.21875 13,3.5541312 0 0 1 0.298829,0.10743 13,3.5541312 0 0 1 0.04492,0.0156 13,3.5541312 0 0 1 0.384766,0.15039 13,3.5541312 0 0 1 0.002,0.002 13,3.5541312 0 0 1 0.121094,0.0508 13,3.5541312 0 0 1 0.01563,0.008 13,3.5541312 0 0 1 0.21875,0.0977 13,3.5541312 0 0 1 0.04102,0.0195 13,3.5541312 0 0 1 0.07031,0.0332 13,3.5541312 0 0 1 0.05273,0.0273 13,3.5541312 0 0 1 0.109376,0.0547 13,3.5541312 0 0 1 0.0098,0.006 13,3.5541312 0 0 1 0.09375,0.0488 13,3.5541312 0 0 1 0.02148,0.0117 13,3.5541312 0 0 1 0.0293,0.0156 13,3.5541312 0 0 1 0.08008,0.0469 13,3.5541312 0 0 1 0.06641,0.0371 13,3.5541312 0 0 1 0.04102,0.0254 13,3.5541312 0 0 1 0.05078,0.0312 13,3.5541312 0 0 1 0.04687,0.0273 13,3.5541312 0 0 1 0.0039,0.004 13,3.5541312 0 0 1 0.08203,0.0527 13,3.5541312 0 0 1 0.01563,0.0117 13,3.5541312 0 0 1 0.06836,0.0469 13,3.5541312 0 0 1 0.230469,0.17383 13,3.5541312 0 0 1 0.0332,0.0274 13,3.5541312 0 0 1 0.002,0.002 13,3.5541312 0 0 1 0.0098,0.008 13,3.5541312 0 0 1 0.06445,0.0586 13,3.5541312 0 0 1 0.0098,0.008 13,3.5541312 0 0 1 0.01563,0.0137 13,3.5541312 0 0 1 0.0918,0.0898 13,3.5541312 0 0 1 0.08203,0.0899 13,3.5541312 0 0 1 0.0039,0.006 13,3.5541312 0 0 1 0.02148,0.0234 13,3.5541312 0 0 1 0.03516,0.043 13,3.5541312 0 0 1 0.01367,0.0176 13,3.5541312 0 0 1 0.03711,0.0508 13,3.5541312 0 0 1 0.02734,0.0391 13,3.5541312 0 0 1 0.01758,0.0273 13,3.5541312 0 0 1 0.02148,0.0332 13,3.5541312 0 0 1 0.03516,0.0625 13,3.5541312 0 0 1 0.01563,0.0293 13,3.5541312 0 0 1 0.0059,0.0117 13,3.5541312 0 0 1 0.02344,0.0488 13,3.5541312 0 0 1 0.0078,0.0195 13,3.5541312 0 0 1 0.01758,0.043 13,3.5541312 0 0 1 0.0098,0.0254 13,3.5541312 0 0 1 0.02148,0.0664 13,3.5541312 0 0 1 0,0.002 13,3.5541312 0 0 1 0.01563,0.0605 13,3.5541312 0 0 1 0.002,0.008 13,3.5541312 0 0 1 0.0098,0.0527 13,3.5541312 0 0 1 0.002,0.0176 13,3.5541312 0 0 1 0.0059,0.0449 13,3.5541312 0 0 1 0.002,0.0234 13,3.5541312 0 0 1 0.002,0.0371 13,3.5541312 0 0 1 0,0.0312 v 2.73437 c 0.469511,-0.20309 0.937576,-0.42357 1.398437,-0.66992 l 20.556641,-10.98828 9.873047,5.27734 c 0.03099,-5.81148 0.06101,-11.62215 0.08984,-17.43359 z"
           transform="scale(0.26458333)" />
        <path
           id="path25723"
           style="fill:#2e3434;fill-opacity:0.34902;stroke-width:1.37021;stroke-linecap:round;stroke-linejoin:round"
           d="m 54.964844,898.28906 a 13,3.5541312 0 0 1 -1.769532,0.80078 13,3.5541312 0 0 1 0.07031,0.0234 13,3.5541312 0 0 1 0.0293,0.01 13,3.5541312 0 0 1 0.04102,0.0156 13,3.5541312 0 0 1 0.01953,0.006 13,3.5541312 0 0 1 0.04883,0.0176 13,3.5541312 0 0 1 0.0059,0.002 13,3.5541312 0 0 1 0.06055,0.0234 13,3.5541312 0 0 1 0.06836,0.0254 13,3.5541312 0 0 1 0.0293,0.01 13,3.5541312 0 0 1 0.09375,0.0371 13,3.5541312 0 0 1 0.07227,0.0273 13,3.5541312 0 0 1 0.01953,0.008 13,3.5541312 0 0 1 0.04492,0.0176 13,3.5541312 0 0 1 0.01172,0.004 13,3.5541312 0 0 1 0.113281,0.0469 13,3.5541312 0 0 1 0.0293,0.0137 13,3.5541312 0 0 1 0.09375,0.0391 13,3.5541312 0 0 1 0.04492,0.0195 13,3.5541312 0 0 1 0.132812,0.0586 13,3.5541312 0 0 1 0.05273,0.0254 13,3.5541312 0 0 1 0.06055,0.0293 13,3.5541312 0 0 1 0.01953,0.008 13,3.5541312 0 0 1 0.08984,0.0449 13,3.5541312 0 0 1 0.03516,0.0176 13,3.5541312 0 0 1 0.07227,0.0371 13,3.5541312 0 0 1 0.04883,0.0254 13,3.5541312 0 0 1 0.0039,0.002 13,3.5541312 0 0 1 0.02539,0.0137 13,3.5541312 0 0 1 0.07617,0.041 13,3.5541312 0 0 1 0.01172,0.006 13,3.5541312 0 0 1 0.08594,0.0508 13,3.5541312 0 0 1 0.02539,0.0137 13,3.5541312 0 0 1 0.07031,0.041 13,3.5541312 0 0 1 0.03711,0.0234 13,3.5541312 0 0 1 0.05469,0.0332 13,3.5541312 0 0 1 0.01367,0.01 13,3.5541312 0 0 1 0.07227,0.0469 13,3.5541312 0 0 1 0.04297,0.0293 13,3.5541312 0 0 1 0.01758,0.0117 13,3.5541312 0 0 1 0.06445,0.0449 13,3.5541312 0 0 1 0.0293,0.0215 13,3.5541312 0 0 1 0.125,0.0957 13,3.5541312 0 0 1 0.03125,0.0254 13,3.5541312 0 0 1 0.0039,0.004 13,3.5541312 0 0 1 0.0098,0.008 13,3.5541312 0 0 1 0.02539,0.0215 13,3.5541312 0 0 1 0.0059,0.006 13,3.5541312 0 0 1 0.02734,0.0234 13,3.5541312 0 0 1 0.02148,0.0176 13,3.5541312 0 0 1 0.04492,0.041 13,3.5541312 0 0 1 0.02734,0.0254 13,3.5541312 0 0 1 0.06445,0.0644 13,3.5541312 0 0 1 0.0039,0.004 13,3.5541312 0 0 1 0.05078,0.0547 13,3.5541312 0 0 1 0.01367,0.0137 13,3.5541312 0 0 1 0.03906,0.0469 13,3.5541312 0 0 1 0.01953,0.0234 13,3.5541312 0 0 1 0.05273,0.0664 13,3.5541312 0 0 1 0,0.002 13,3.5541312 0 0 1 0.04102,0.0586 13,3.5541312 0 0 1 0.0078,0.0117 13,3.5541312 0 0 1 0.03125,0.0488 13,3.5541312 0 0 1 0.01172,0.0195 13,3.5541312 0 0 1 0.0078,0.0117 13,3.5541312 0 0 1 0.01172,0.0234 13,3.5541312 0 0 1 0.0039,0.008 13,3.5541312 0 0 1 0.01563,0.0273 13,3.5541312 0 0 1 0.0293,0.0625 13,3.5541312 0 0 1 0.0039,0.008 13,3.5541312 0 0 1 0.02148,0.0547 13,3.5541312 0 0 1 0.0059,0.0156 13,3.5541312 0 0 1 0.01562,0.0449 13,3.5541312 0 0 1 0.0078,0.0254 13,3.5541312 0 0 1 0.01758,0.0684 13,3.5541312 0 0 1 0,0.002 13,3.5541312 0 0 1 0.01172,0.0586 13,3.5541312 0 0 1 0.002,0.0137 13,3.5541312 0 0 1 0.0059,0.0488 13,3.5541312 0 0 1 0.002,0.0215 13,3.5541312 0 0 1 0.002,0.0391 13,3.5541312 0 0 1 0,0.0312 v 3.55468 a 13,3.5541312 0 0 1 -0.173829,0.56836 13,3.5541312 0 0 1 -0.02734,0.041 13,3.5541312 0 0 1 -0.494141,0.53125 13,3.5541312 0 0 1 -0.03125,0.0234 13,3.5541312 0 0 1 -2.013672,1.01367 13,3.5541312 0 0 1 -0.01367,0.006 13,3.5541312 0 0 1 -0.02539,0.008 13,3.5541312 0 0 1 -1.416016,0.41992 13,3.5541312 0 0 1 -0.01563,0.004 13,3.5541312 0 0 1 -0.01367,0.004 13,3.5541312 0 0 1 -3.574219,0.63477 l 16.97461,9.07422 -9.875,5.2793 c 10.872593,0.017 21.744571,0.0317 32.617187,0.0469 -0.02884,-5.81144 -0.05885,-11.62212 -0.08984,-17.43359 l -9.873047,5.27734 -20.556641,-10.98828 c -0.816773,-0.4366 -1.651909,-0.79161 -2.490234,-1.0918 z"
           transform="scale(0.26458333)" />
        <path
           id="path25725"
           style="fill:#2e3434;fill-opacity:0.34902;stroke:none;stroke-width:0.068298;stroke-miterlimit:4;stroke-dasharray:none"
           d="m 10.862675,237.53263 a 3.4395833,0.94036387 0 0 0 -3.439583,0.94051 v 0.94052 a 3.4395833,0.94036387 0 0 0 3.439583,0.93999 3.4395833,0.94036387 0 0 0 3.439584,-0.93999 v -0.94052 a 3.4395833,0.94036387 0 0 0 -3.439584,-0.94051 z" />
        <path
           id="path25727"
           style="fill:#2e3434;fill-opacity:0.34902;stroke:none;stroke-width:0.068298;stroke-miterlimit:4;stroke-dasharray:none"
           d="m 10.862675,235.41595 a 3.4395833,0.94036387 0 0 0 -3.439583,0.94051 v 0.94052 a 3.4395833,0.94036387 0 0 0 3.439583,0.93999 3.4395833,0.94036387 0 0 0 3.439584,-0.93999 v -0.94052 a 3.4395833,0.94036387 0 0 0 -3.439584,-0.94051 z" />
        <path
           id="path25729"
           style="fill:#2e3434;fill-opacity:0.34902;stroke:none;stroke-width:0.068298;stroke-miterlimit:4;stroke-dasharray:none"
           d="m 10.862675,233.29927 a 3.4395833,0.94036387 0 0 0 -3.439583,0.94051 v 0.94052 a 3.4395833,0.94036387 0 0 0 3.439583,0.93999 3.4395833,0.94036387 0 0 0 3.439584,-0.93999 v -0.94052 a 3.4395833,0.94036387 0 0 0 -3.439584,-0.94051 z" />
      </g>
      <g
         id="g25719"
         transform="matrix(1.0680981,0,0,1.0640341,-117.64939,-16.259939)">
        <path
           id="path19164"
           style="fill:#2e3436;stroke-width:1.37021;stroke-linecap:round;stroke-linejoin:round"
           d="m 87.974609,880.23633 c -10.872617,0.0151 -21.744594,0.0299 -32.617187,0.0469 l 9.875,5.2793 -11.056641,5.91016 a 13,3.5541312 0 0 1 0.140625,0.0664 13,3.5541312 0 0 1 0.566406,0.30078 13,3.5541312 0 0 1 0.355469,0.23438 13,3.5541312 0 0 1 0.103516,0.0801 13,3.5541312 0 0 1 0.002,0 13,3.5541312 0 0 1 0.0957,0.0801 13,3.5541312 0 0 1 0.0918,0.0801 13,3.5541312 0 0 1 0.04687,0.0449 13,3.5541312 0 0 1 0.03516,0.0371 13,3.5541312 0 0 1 0.07813,0.082 13,3.5541312 0 0 1 0.06836,0.082 13,3.5541312 0 0 1 0.0625,0.084 13,3.5541312 0 0 1 0.101562,0.16602 13,3.5541312 0 0 1 0.04102,0.084 13,3.5541312 0 0 1 0.0332,0.084 13,3.5541312 0 0 1 0.02148,0.0684 13,3.5541312 0 0 1 0.0039,0.0156 13,3.5541312 0 0 1 0.0098,0.0391 13,3.5541312 0 0 1 0.002,0.0137 13,3.5541312 0 0 1 0.0078,0.0391 13,3.5541312 0 0 1 0.0078,0.0547 13,3.5541312 0 0 1 0.002,0.0234 13,3.5541312 0 0 1 0.002,0.0293 13,3.5541312 0 0 1 0.002,0.0547 v 3.55468 a 13,3.5541312 0 0 1 -2.861329,2.21875 13,3.5541312 0 0 1 0.298829,0.10743 13,3.5541312 0 0 1 0.04492,0.0156 13,3.5541312 0 0 1 0.384766,0.15039 13,3.5541312 0 0 1 0.002,0.002 13,3.5541312 0 0 1 0.121094,0.0508 13,3.5541312 0 0 1 0.01563,0.008 13,3.5541312 0 0 1 0.21875,0.0977 13,3.5541312 0 0 1 0.04102,0.0195 13,3.5541312 0 0 1 0.07031,0.0332 13,3.5541312 0 0 1 0.05273,0.0273 13,3.5541312 0 0 1 0.109376,0.0547 13,3.5541312 0 0 1 0.0098,0.006 13,3.5541312 0 0 1 0.09375,0.0488 13,3.5541312 0 0 1 0.02148,0.0117 13,3.5541312 0 0 1 0.0293,0.0156 13,3.5541312 0 0 1 0.08008,0.0469 13,3.5541312 0 0 1 0.06641,0.0371 13,3.5541312 0 0 1 0.04102,0.0254 13,3.5541312 0 0 1 0.05078,0.0312 13,3.5541312 0 0 1 0.04687,0.0273 13,3.5541312 0 0 1 0.0039,0.004 13,3.5541312 0 0 1 0.08203,0.0527 13,3.5541312 0 0 1 0.01563,0.0117 13,3.5541312 0 0 1 0.06836,0.0469 13,3.5541312 0 0 1 0.230469,0.17383 13,3.5541312 0 0 1 0.0332,0.0274 13,3.5541312 0 0 1 0.002,0.002 13,3.5541312 0 0 1 0.0098,0.008 13,3.5541312 0 0 1 0.06445,0.0586 13,3.5541312 0 0 1 0.0098,0.008 13,3.5541312 0 0 1 0.01563,0.0137 13,3.5541312 0 0 1 0.0918,0.0898 13,3.5541312 0 0 1 0.08203,0.0899 13,3.5541312 0 0 1 0.0039,0.006 13,3.5541312 0 0 1 0.02148,0.0234 13,3.5541312 0 0 1 0.03516,0.043 13,3.5541312 0 0 1 0.01367,0.0176 13,3.5541312 0 0 1 0.03711,0.0508 13,3.5541312 0 0 1 0.02734,0.0391 13,3.5541312 0 0 1 0.01758,0.0273 13,3.5541312 0 0 1 0.02148,0.0332 13,3.5541312 0 0 1 0.03516,0.0625 13,3.5541312 0 0 1 0.01563,0.0293 13,3.5541312 0 0 1 0.0059,0.0117 13,3.5541312 0 0 1 0.02344,0.0488 13,3.5541312 0 0 1 0.0078,0.0195 13,3.5541312 0 0 1 0.01758,0.043 13,3.5541312 0 0 1 0.0098,0.0254 13,3.5541312 0 0 1 0.02148,0.0664 13,3.5541312 0 0 1 0,0.002 13,3.5541312 0 0 1 0.01563,0.0605 13,3.5541312 0 0 1 0.002,0.008 13,3.5541312 0 0 1 0.0098,0.0527 13,3.5541312 0 0 1 0.002,0.0176 13,3.5541312 0 0 1 0.0059,0.0449 13,3.5541312 0 0 1 0.002,0.0234 13,3.5541312 0 0 1 0.002,0.0371 13,3.5541312 0 0 1 0,0.0312 v 2.73437 c 0.469511,-0.20309 0.937576,-0.42357 1.398437,-0.66992 l 20.556641,-10.98828 9.873047,5.27734 c 0.03099,-5.81148 0.06101,-11.62215 0.08984,-17.43359 z"
           transform="scale(0.26458333)" />
        <path
           id="path19414"
           style="fill:#2e3436;stroke-width:1.37021;stroke-linecap:round;stroke-linejoin:round"
           d="m 54.964844,898.28906 a 13,3.5541312 0 0 1 -1.769532,0.80078 13,3.5541312 0 0 1 0.07031,0.0234 13,3.5541312 0 0 1 0.0293,0.01 13,3.5541312 0 0 1 0.04102,0.0156 13,3.5541312 0 0 1 0.01953,0.006 13,3.5541312 0 0 1 0.04883,0.0176 13,3.5541312 0 0 1 0.0059,0.002 13,3.5541312 0 0 1 0.06055,0.0234 13,3.5541312 0 0 1 0.06836,0.0254 13,3.5541312 0 0 1 0.0293,0.01 13,3.5541312 0 0 1 0.09375,0.0371 13,3.5541312 0 0 1 0.07227,0.0273 13,3.5541312 0 0 1 0.01953,0.008 13,3.5541312 0 0 1 0.04492,0.0176 13,3.5541312 0 0 1 0.01172,0.004 13,3.5541312 0 0 1 0.113281,0.0469 13,3.5541312 0 0 1 0.0293,0.0137 13,3.5541312 0 0 1 0.09375,0.0391 13,3.5541312 0 0 1 0.04492,0.0195 13,3.5541312 0 0 1 0.132812,0.0586 13,3.5541312 0 0 1 0.05273,0.0254 13,3.5541312 0 0 1 0.06055,0.0293 13,3.5541312 0 0 1 0.01953,0.008 13,3.5541312 0 0 1 0.08984,0.0449 13,3.5541312 0 0 1 0.03516,0.0176 13,3.5541312 0 0 1 0.07227,0.0371 13,3.5541312 0 0 1 0.04883,0.0254 13,3.5541312 0 0 1 0.0039,0.002 13,3.5541312 0 0 1 0.02539,0.0137 13,3.5541312 0 0 1 0.07617,0.041 13,3.5541312 0 0 1 0.01172,0.006 13,3.5541312 0 0 1 0.08594,0.0508 13,3.5541312 0 0 1 0.02539,0.0137 13,3.5541312 0 0 1 0.07031,0.041 13,3.5541312 0 0 1 0.03711,0.0234 13,3.5541312 0 0 1 0.05469,0.0332 13,3.5541312 0 0 1 0.01367,0.01 13,3.5541312 0 0 1 0.07227,0.0469 13,3.5541312 0 0 1 0.04297,0.0293 13,3.5541312 0 0 1 0.01758,0.0117 13,3.5541312 0 0 1 0.06445,0.0449 13,3.5541312 0 0 1 0.0293,0.0215 13,3.5541312 0 0 1 0.125,0.0957 13,3.5541312 0 0 1 0.03125,0.0254 13,3.5541312 0 0 1 0.0039,0.004 13,3.5541312 0 0 1 0.0098,0.008 13,3.5541312 0 0 1 0.02539,0.0215 13,3.5541312 0 0 1 0.0059,0.006 13,3.5541312 0 0 1 0.02734,0.0234 13,3.5541312 0 0 1 0.02148,0.0176 13,3.5541312 0 0 1 0.04492,0.041 13,3.5541312 0 0 1 0.02734,0.0254 13,3.5541312 0 0 1 0.06445,0.0644 13,3.5541312 0 0 1 0.0039,0.004 13,3.5541312 0 0 1 0.05078,0.0547 13,3.5541312 0 0 1 0.01367,0.0137 13,3.5541312 0 0 1 0.03906,0.0469 13,3.5541312 0 0 1 0.01953,0.0234 13,3.5541312 0 0 1 0.05273,0.0664 13,3.5541312 0 0 1 0,0.002 13,3.5541312 0 0 1 0.04102,0.0586 13,3.5541312 0 0 1 0.0078,0.0117 13,3.5541312 0 0 1 0.03125,0.0488 13,3.5541312 0 0 1 0.01172,0.0195 13,3.5541312 0 0 1 0.0078,0.0117 13,3.5541312 0 0 1 0.01172,0.0234 13,3.5541312 0 0 1 0.0039,0.008 13,3.5541312 0 0 1 0.01563,0.0273 13,3.5541312 0 0 1 0.0293,0.0625 13,3.5541312 0 0 1 0.0039,0.008 13,3.5541312 0 0 1 0.02148,0.0547 13,3.5541312 0 0 1 0.0059,0.0156 13,3.5541312 0 0 1 0.01562,0.0449 13,3.5541312 0 0 1 0.0078,0.0254 13,3.5541312 0 0 1 0.01758,0.0684 13,3.5541312 0 0 1 0,0.002 13,3.5541312 0 0 1 0.01172,0.0586 13,3.5541312 0 0 1 0.002,0.0137 13,3.5541312 0 0 1 0.0059,0.0488 13,3.5541312 0 0 1 0.002,0.0215 13,3.5541312 0 0 1 0.002,0.0391 13,3.5541312 0 0 1 0,0.0312 v 3.55468 a 13,3.5541312 0 0 1 -0.173829,0.56836 13,3.5541312 0 0 1 -0.02734,0.041 13,3.5541312 0 0 1 -0.494141,0.53125 13,3.5541312 0 0 1 -0.03125,0.0234 13,3.5541312 0 0 1 -2.013672,1.01367 13,3.5541312 0 0 1 -0.01367,0.006 13,3.5541312 0 0 1 -0.02539,0.008 13,3.5541312 0 0 1 -1.416016,0.41992 13,3.5541312 0 0 1 -0.01563,0.004 13,3.5541312 0 0 1 -0.01367,0.004 13,3.5541312 0 0 1 -3.574219,0.63477 l 16.97461,9.07422 -9.875,5.2793 c 10.872593,0.017 21.744571,0.0317 32.617187,0.0469 -0.02884,-5.81144 -0.05885,-11.62212 -0.08984,-17.43359 l -9.873047,5.27734 -20.556641,-10.98828 c -0.816773,-0.4366 -1.651909,-0.79161 -2.490234,-1.0918 z"
           transform="scale(0.26458333)" />
        <path
           id="path25573"
           style="fill:#2e3436;fill-opacity:1;stroke:none;stroke-width:0.068298;stroke-miterlimit:4;stroke-dasharray:none"
           d="m 10.862675,237.53263 a 3.4395833,0.94036387 0 0 0 -3.439583,0.94051 v 0.94052 a 3.4395833,0.94036387 0 0 0 3.439583,0.93999 3.4395833,0.94036387 0 0 0 3.439584,-0.93999 v -0.94052 a 3.4395833,0.94036387 0 0 0 -3.439584,-0.94051 z" />
        <path
           id="path25575"
           style="fill:#2e3436;fill-opacity:1;stroke:none;stroke-width:0.068298;stroke-miterlimit:4;stroke-dasharray:none"
           d="m 10.862675,235.41595 a 3.4395833,0.94036387 0 0 0 -3.439583,0.94051 v 0.94052 a 3.4395833,0.94036387 0 0 0 3.439583,0.93999 3.4395833,0.94036387 0 0 0 3.439584,-0.93999 v -0.94052 a 3.4395833,0.94036387 0 0 0 -3.439584,-0.94051 z" />
        <path
           id="path25577"
           style="fill:#2e3436;fill-opacity:1;stroke:none;stroke-width:0.068298;stroke-miterlimit:4;stroke-dasharray:none"
           d="m 10.862675,233.29927 a 3.4395833,0.94036387 0 0 0 -3.439583,0.94051 v 0.94052 a 3.4395833,0.94036387 0 0 0 3.439583,0.93999 3.4395833,0.94036387 0 0 0 3.439584,-0.93999 v -0.94052 a 3.4395833,0.94036387 0 0 0 -3.439584,-0.94051 z" />
      </g>
    </g>
  </g>
</svg>
