<?xml version="1.0" encoding="UTF-8" standalone="no"?>
<!-- Created with Inkscape (http://www.inkscape.org/) -->

<svg
   width="64"
   height="64"
   viewBox="0 0 16.933333 16.933334"
   version="1.1"
   id="svg236025"
   inkscape:version="1.1.2 (0a00cf5339, 2022-02-04)"
   sodipodi:docname="stock-regrouparmies-symbolic.svg"
   xmlns:inkscape="http://www.inkscape.org/namespaces/inkscape"
   xmlns:sodipodi="http://sodipodi.sourceforge.net/DTD/sodipodi-0.dtd"
   xmlns="http://www.w3.org/2000/svg"
   xmlns:svg="http://www.w3.org/2000/svg">
  <sodipodi:namedview
     id="namedview236027"
     pagecolor="#ffffff"
     bordercolor="#666666"
     borderopacity="1.0"
     inkscape:pageshadow="2"
     inkscape:pageopacity="0.0"
     inkscape:pagecheckerboard="0"
     inkscape:document-units="mm"
     showgrid="false"
     units="px"
     inkscape:zoom="3.68"
     inkscape:cx="45.788043"
     inkscape:cy="40.48913"
     inkscape:window-width="1920"
     inkscape:window-height="1011"
     inkscape:window-x="0"
     inkscape:window-y="32"
     inkscape:window-maximized="1"
     inkscape:current-layer="layer1" />
  <defs
     id="defs236022" />
  <g
     inkscape:label="Layer 1"
     inkscape:groupmode="layer"
     id="layer1">
    <g
       id="g128428"
       transform="matrix(1,0,0,0.99086401,84.844746,-226.83021)">
      <path
         id="path124565"
         d="m -81.672992,237.00125 c -0.531577,0 -0.962497,0.53869 -0.962497,1.20323 0,0.66451 0.43092,1.20321 0.962497,1.20321 0.531577,0 0.962512,-0.5387 0.962512,-1.20321 0,-0.66454 -0.430935,-1.20323 -0.962512,-1.20323 z m -0.481249,2.80752 c -0.799849,0 -1.44376,0.80495 -1.44376,1.80482 v 0.20055 c 0,0.44438 0.286194,0.80215 0.641675,0.80215 h 2.566668 c 0.355496,0 0.641675,-0.35777 0.641675,-0.80215 v -0.20055 c 0,-0.99987 -0.643911,-1.80482 -1.443761,-1.80482 z"
         style="fill:#2e3436;fill-opacity:1;stroke-width:0.358717" />
      <path
         id="path124567"
         style="fill:#2e3434;fill-opacity:0.34902;stroke-width:0.813955"
         d="m -75.811655,234.02166 a 2.0099185,2.96664 85.377902 0 0 -1.593555,2.70271 2.0099185,2.96664 85.377902 0 0 0.163412,0.21548 l -3.564519,2.96405 a 2.0099185,2.96664 85.377902 0 0 -2.216796,0.11356 2.0099185,2.96664 85.377902 0 0 -1.593554,2.70271 2.0099185,2.96664 85.377902 0 0 3.873031,0.91462 2.0099185,2.96664 85.377902 0 0 1.571098,-1.12756 l 5.449463,0.0141 a 2.0099185,2.96664 85.377902 0 0 0.116868,0.23004 2.0099185,2.96664 85.377902 0 0 3.873032,0.91464 2.0099185,2.96664 85.377902 0 0 1.593622,-2.70285 2.0099185,2.96664 85.377902 0 0 -3.873099,-0.9145 2.0099185,2.96664 85.377902 0 0 -1.569264,1.12678 l -5.452962,-0.0141 a 2.0099185,2.96664 85.377902 0 0 -0.115849,-0.23076 2.0099185,2.96664 85.377902 0 0 -0.163412,-0.21548 l 3.56914,-2.96682 a 2.0099185,2.96664 85.377902 0 0 2.212209,-0.10996 2.0099185,2.96664 85.377902 0 0 1.593588,-2.70271 2.0099185,2.96664 85.377902 0 0 -3.873065,-0.91462 z" />
      <path
         id="path124573"
         d="m -74.945592,231.05782 c -0.531577,0 -0.962497,0.52847 -0.962497,1.1804 0,0.6519 0.43092,1.18038 0.962497,1.18038 0.531577,0 0.962512,-0.52848 0.962512,-1.18038 0,-0.65193 -0.430935,-1.1804 -0.962512,-1.1804 z m -0.481249,2.75424 c -0.799849,0 -1.44376,0.78969 -1.44376,1.77058 v 0.19675 c 0,0.43595 0.286194,0.78693 0.641675,0.78693 h 2.566668 c 0.355496,0 0.641675,-0.35098 0.641675,-0.78693 v -0.19675 c 0,-0.98089 -0.643911,-1.77058 -1.443761,-1.77058 z"
         style="fill:#2e3436;fill-opacity:1;stroke-width:0.355298" />
      <path
         id="path124575"
         d="m -70.481221,237.07262 c -0.531577,0 -0.962497,0.53184 -0.962497,1.18793 0,0.65606 0.43092,1.18792 0.962497,1.18792 0.531577,0 0.962512,-0.53186 0.962512,-1.18792 0,-0.65609 -0.430935,-1.18793 -0.962512,-1.18793 z m -0.481249,2.77183 c -0.799849,0 -1.44376,0.79472 -1.44376,1.78188 v 0.19801 c 0,0.43873 0.286194,0.79195 0.641675,0.79195 h 2.566668 c 0.355496,0 0.641675,-0.35322 0.641675,-0.79195 v -0.19801 c 0,-0.98716 -0.643911,-1.78188 -1.443761,-1.78188 z"
         style="fill:#2e3436;fill-opacity:1;stroke-width:0.356431" />
    </g>
  </g>
</svg>
