<?xml version="1.0" encoding="UTF-8" standalone="no"?>
<!-- Created with Inkscape (http://www.inkscape.org/) -->

<svg
   width="64"
   height="64"
   viewBox="0 0 16.933333 16.933334"
   version="1.1"
   id="svg3863"
   inkscape:version="1.1.2 (0a00cf5339, 2022-02-04)"
   sodipodi:docname="stock-viewplayers-symbolic.svg"
   xmlns:inkscape="http://www.inkscape.org/namespaces/inkscape"
   xmlns:sodipodi="http://sodipodi.sourceforge.net/DTD/sodipodi-0.dtd"
   xmlns="http://www.w3.org/2000/svg"
   xmlns:svg="http://www.w3.org/2000/svg">
  <sodipodi:namedview
     id="namedview3865"
     pagecolor="#ffffff"
     bordercolor="#666666"
     borderopacity="1.0"
     inkscape:pageshadow="2"
     inkscape:pageopacity="0.0"
     inkscape:pagecheckerboard="0"
     inkscape:document-units="mm"
     showgrid="false"
     units="px"
     inkscape:zoom="1.73"
     inkscape:cx="50.578035"
     inkscape:cy="76.878613"
     inkscape:window-width="1920"
     inkscape:window-height="1011"
     inkscape:window-x="0"
     inkscape:window-y="32"
     inkscape:window-maximized="1"
     inkscape:current-layer="layer1" />
  <defs
     id="defs3860" />
  <g
     inkscape:label="Layer 1"
     inkscape:groupmode="layer"
     id="layer1">
    <g
       id="g21749"
       transform="translate(15.64906,-230.16303)">
      <path
         id="path104159"
         d="m -8.7699231,230.16691 c -3.7865939,0 -6.8791349,3.09255 -6.8791349,6.87914 0,3.78659 3.092541,6.87707 6.8791349,6.87707 1.512362,0 2.9132926,-0.49569 4.0514085,-1.32911 l 4.17544463,4.17543 c 1.01423853,0.99276 2.50251297,-0.52859 1.48827445,-1.52134 l -4.15890288,-4.15891 c 0.8305973,-1.1364 1.3229106,-2.53401 1.3229106,-4.04314 0,-3.78659 -3.0925417,-6.87914 -6.8791353,-6.87914 z m 0,2.11666 c 2.6426463,0 4.7624783,2.11983 4.7624783,4.76248 0,2.64265 -2.119832,4.76041 -4.7624783,4.76041 -2.6426459,0 -4.7624779,-2.11776 -4.7624779,-4.76041 0,-2.64265 2.119832,-4.76248 4.7624779,-4.76248 z"
         style="fill:#2e3436;fill-opacity:1;stroke-width:1.05833" />
      <path
         id="path15199"
         style="fill:#2e3436;fill-opacity:1;fill-rule:evenodd;stroke-width:0.34953"
         d="m -33.433594,885.7832 a 15.511898,10.356142 0 0 0 -15.511718,10.35742 15.511898,10.356142 0 0 0 15.511718,10.35547 15.511898,10.356142 0 0 0 15.513672,-10.35547 v -0.002 A 15.511898,10.356142 0 0 0 -33.433594,885.7832 Z m 0,5.93946 a 5.4721228,4.4161871 0 0 1 5.472656,4.41601 5.4721228,4.4161871 0 0 1 -5.472656,4.41797 5.4721228,4.4161871 0 0 1 -5.470703,-4.41602 5.4721228,4.4161871 0 0 1 5.470703,-4.41796 z"
         transform="scale(0.26458333)" />
    </g>
  </g>
</svg>
