<?xml version="1.0" encoding="UTF-8" standalone="no"?>
<!-- Created with Inkscape (http://www.inkscape.org/) -->

<svg
   width="64"
   height="64"
   viewBox="0 0 16.933333 16.933334"
   version="1.1"
   id="svg3456"
   inkscape:version="1.1.2 (0a00cf5339, 2022-02-04)"
   sodipodi:docname="stock-regrouparmies-symbolic.svg"
   xmlns:inkscape="http://www.inkscape.org/namespaces/inkscape"
   xmlns:sodipodi="http://sodipodi.sourceforge.net/DTD/sodipodi-0.dtd"
   xmlns="http://www.w3.org/2000/svg"
   xmlns:svg="http://www.w3.org/2000/svg">
  <sodipodi:namedview
     id="namedview3458"
     pagecolor="#ffffff"
     bordercolor="#666666"
     borderopacity="1.0"
     inkscape:pageshadow="2"
     inkscape:pageopacity="0.0"
     inkscape:pagecheckerboard="0"
     inkscape:document-units="mm"
     showgrid="false"
     units="px"
     inkscape:zoom="0.74208053"
     inkscape:cx="49.186037"
     inkscape:cy="118.58551"
     inkscape:window-width="1920"
     inkscape:window-height="1011"
     inkscape:window-x="0"
     inkscape:window-y="32"
     inkscape:window-maximized="1"
     inkscape:current-layer="layer1" />
  <defs
     id="defs3453" />
  <g
     inkscape:label="Ebene 1"
     inkscape:groupmode="layer"
     id="layer1">
    <g
       id="g81790"
       transform="matrix(0.99946677,0,0,0.99946677,-4.631201,-211.51542)">
      <path
         id="path54577"
         style="fill:#2e3434;fill-opacity:0.34902;stroke:none;stroke-width:0.226;stroke-miterlimit:4;stroke-dasharray:none;stroke-opacity:0.34902"
         d="m 41.130859,836.79102 a 11.409946,3.1075497 0 0 1 -1.552734,0.70117 11.409946,3.1075497 0 0 1 0.06055,0.0234 11.409946,3.1075497 0 0 1 0.02539,0.006 11.409946,3.1075497 0 0 1 0.03516,0.0117 11.409946,3.1075497 0 0 1 0.01953,0.008 11.409946,3.1075497 0 0 1 0.04297,0.0156 11.409946,3.1075497 0 0 1 0.0059,0.002 11.409946,3.1075497 0 0 1 0.05273,0.0215 11.409946,3.1075497 0 0 1 0.06055,0.0234 11.409946,3.1075497 0 0 1 0.02539,0.008 11.409946,3.1075497 0 0 1 0.08203,0.0332 11.409946,3.1075497 0 0 1 0.0625,0.0273 11.409946,3.1075497 0 0 1 0.01953,0.008 11.409946,3.1075497 0 0 1 0.03906,0.0137 11.409946,3.1075497 0 0 1 0.0098,0.004 11.409946,3.1075497 0 0 1 0.09961,0.041 11.409946,3.1075497 0 0 1 0.02344,0.0117 11.409946,3.1075497 0 0 1 0.08398,0.0332 11.409946,3.1075497 0 0 1 0.03906,0.0156 11.409946,3.1075497 0 0 1 0.115235,0.0508 11.409946,3.1075497 0 0 1 0.04687,0.0234 11.409946,3.1075497 0 0 1 0.05273,0.0254 11.409946,3.1075497 0 0 1 0.01953,0.008 11.409946,3.1075497 0 0 1 0.07813,0.0391 11.409946,3.1075497 0 0 1 0.03125,0.0156 11.409946,3.1075497 0 0 1 0.0625,0.0332 11.409946,3.1075497 0 0 1 0.04297,0.0234 11.409946,3.1075497 0 0 1 0.0039,0.002 11.409946,3.1075497 0 0 1 0.02148,0.0117 11.409946,3.1075497 0 0 1 0.06641,0.0332 11.409946,3.1075497 0 0 1 0.0098,0.008 11.409946,3.1075497 0 0 1 0.07617,0.0449 11.409946,3.1075497 0 0 1 0.02148,0.0117 11.409946,3.1075497 0 0 1 0.0625,0.0332 11.409946,3.1075497 0 0 1 0.03125,0.0234 11.409946,3.1075497 0 0 1 0.04883,0.0254 11.409946,3.1075497 0 0 1 0.01172,0.008 11.409946,3.1075497 0 0 1 0.06445,0.041 11.409946,3.1075497 0 0 1 0.03711,0.0273 11.409946,3.1075497 0 0 1 0.01563,0.008 11.409946,3.1075497 0 0 1 0.05664,0.0391 11.409946,3.1075497 0 0 1 0.02539,0.0176 11.409946,3.1075497 0 0 1 0.109374,0.084 11.409946,3.1075497 0 0 1 0.02734,0.0234 11.409946,3.1075497 0 0 1 0.0039,0.002 11.409946,3.1075497 0 0 1 0.0078,0.008 11.409946,3.1075497 0 0 1 0.02344,0.0195 11.409946,3.1075497 0 0 1 0.0059,0.008 11.409946,3.1075497 0 0 1 0.02539,0.0215 11.409946,3.1075497 0 0 1 0.01758,0.0156 11.409946,3.1075497 0 0 1 0.03906,0.0332 11.409946,3.1075497 0 0 1 0.02539,0.0234 11.409946,3.1075497 0 0 1 0.05664,0.0566 11.409946,3.1075497 0 0 1 0.0039,0.002 11.409946,3.1075497 0 0 1 0.04297,0.0488 11.409946,3.1075497 0 0 1 0.01367,0.0117 11.409946,3.1075497 0 0 1 0.0332,0.041 11.409946,3.1075497 0 0 1 0.01953,0.0215 11.409946,3.1075497 0 0 1 0.04492,0.0586 11.409946,3.1075497 0 0 1 0,0.002 11.409946,3.1075497 0 0 1 0.03711,0.0508 11.409946,3.1075497 0 0 1 0.0059,0.008 11.409946,3.1075497 0 0 1 0.02734,0.043 11.409946,3.1075497 0 0 1 0.0098,0.0156 11.409946,3.1075497 0 0 1 0.0059,0.008 11.409946,3.1075497 0 0 1 0.0098,0.0215 11.409946,3.1075497 0 0 1 0.0039,0.008 11.409946,3.1075497 0 0 1 0.01172,0.0273 11.409946,3.1075497 0 0 1 0.02539,0.0547 11.409946,3.1075497 0 0 1 0.002,0.008 11.409946,3.1075497 0 0 1 0.01953,0.0469 11.409946,3.1075497 0 0 1 0.0059,0.0117 11.409946,3.1075497 0 0 1 0.01172,0.0391 11.409946,3.1075497 0 0 1 0.0059,0.0234 11.409946,3.1075497 0 0 1 0.01563,0.0605 11.409946,3.1075497 0 0 1 0.0098,0.0527 11.409946,3.1075497 0 0 1 0.002,0.0117 11.409946,3.1075497 0 0 1 0.0059,0.041 11.409946,3.1075497 0 0 1 0.002,0.0195 11.409946,3.1075497 0 0 1 0.002,0.0332 11.409946,3.1075497 0 0 1 0,0.002 11.409946,3.1075497 0 0 1 0,0.002 11.409946,3.1075497 0 0 1 0,0.002 11.409946,3.1075497 0 0 1 0,0.002 11.409946,3.1075497 0 0 1 0,0.002 11.409946,3.1075497 0 0 1 0,0.002 11.409946,3.1075497 0 0 1 0,0.002 11.409946,3.1075497 0 0 1 0,0.002 11.409946,3.1075497 0 0 1 0,0.002 11.409946,3.1075497 0 0 1 0,0.002 11.409946,3.1075497 0 0 1 0,0.002 11.409946,3.1075497 0 0 1 0,0.002 11.409946,3.1075497 0 0 1 0,0.002 11.409946,3.1075497 0 0 1 0,0.002 v 3.10742 a 11.409946,3.1075497 0 0 1 -0.152344,0.49805 11.409946,3.1075497 0 0 1 -0.02539,0.0332 11.409946,3.1075497 0 0 1 -0.433594,0.46485 11.409946,3.1075497 0 0 1 -0.02734,0.0234 11.409946,3.1075497 0 0 1 -1.767578,0.88477 11.409946,3.1075497 0 0 1 -0.01367,0.008 11.409946,3.1075497 0 0 1 -0.02148,0.008 11.409946,3.1075497 0 0 1 -1.242187,0.36719 11.409946,3.1075497 0 0 1 -0.01172,0.004 11.409946,3.1075497 0 0 1 -0.01367,0.002 11.409946,3.1075497 0 0 1 -3.136719,0.55469 l 14.898438,7.93554 -8.667969,4.61524 c 5.751811,0.009 11.504189,0.0175 17.255859,0.0254 v 1.94531 a 11.409946,3.1075497 0 0 0 11.410157,3.10742 11.409946,3.1075497 0 0 0 11.410156,-3.10742 v -3.10742 a 11.409946,3.1075497 0 0 0 -2.511719,-1.94531 11.409946,3.1075497 0 0 0 2.511719,-1.94141 v -3.10742 a 11.409946,3.1075497 0 0 0 -2.509766,-1.94727 11.409946,3.1075497 0 0 0 2.509766,-1.9414 V 842.8257 A 11.409946,3.1075497 0 0 0 70.137317,839.71827 11.409946,3.1075497 0 0 0 58.72716,842.8257 v 3.10742 a 11.409946,3.1075497 0 0 0 0.0039,0.0351 L 43.3125,837.75391 c -0.716871,-0.38174 -1.449764,-0.69263 -2.185547,-0.95508 z"
         transform="scale(0.26458333)" />
      <path
         id="path51755"
         style="fill:#2e3434;fill-opacity:0.34902;stroke-width:1.20033;stroke-linecap:round;stroke-linejoin:round"
         d="m 70.136719,802.98242 a 11.409946,3.1075497 0 0 0 -11.410157,3.10742 v 3.10938 a 11.409946,3.1075497 0 0 0 2.515626,1.9414 11.409946,3.1075497 0 0 0 -2.515626,1.94532 v 3.10742 a 11.409946,3.1075497 0 0 0 2.513672,1.94336 11.409946,3.1075497 0 0 0 -2.513672,1.94336 v 0.94336 c -5.750364,0.008 -11.501425,0.0167 -17.251953,0.0254 l 8.667969,4.61523 -9.705078,5.16797 a 11.409946,3.1075497 0 0 1 0.123047,0.0586 11.409946,3.1075497 0 0 1 0.498047,0.26172 11.409946,3.1075497 0 0 1 0.3125,0.20508 11.409946,3.1075497 0 0 1 0.08984,0.0703 11.409946,3.1075497 0 0 1 0.002,0 11.409946,3.1075497 0 0 1 0.08398,0.0703 11.409946,3.1075497 0 0 1 0.08008,0.0703 11.409946,3.1075497 0 0 1 0.04102,0.0391 11.409946,3.1075497 0 0 1 0.03125,0.0332 11.409946,3.1075497 0 0 1 0.06836,0.0723 11.409946,3.1075497 0 0 1 0.06055,0.0723 11.409946,3.1075497 0 0 1 0.05469,0.0723 11.409946,3.1075497 0 0 1 0.08984,0.14649 11.409946,3.1075497 0 0 1 0.03516,0.0723 11.409946,3.1075497 0 0 1 0.0293,0.0742 11.409946,3.1075497 0 0 1 0.01758,0.0606 11.409946,3.1075497 0 0 1 0.0039,0.0117 11.409946,3.1075497 0 0 1 0.0078,0.0332 11.409946,3.1075497 0 0 1 0.002,0.0117 11.409946,3.1075497 0 0 1 0.0059,0.0332 11.409946,3.1075497 0 0 1 0.0078,0.0488 11.409946,3.1075497 0 0 1 0,0.0215 11.409946,3.1075497 0 0 1 0.002,0.0274 11.409946,3.1075497 0 0 1 0.002,0.0488 v 3.10742 a 11.409946,3.1075497 0 0 1 -2.511719,1.93945 11.409946,3.1075497 0 0 1 0.263672,0.0937 11.409946,3.1075497 0 0 1 0.03906,0.0117 11.409946,3.1075497 0 0 1 0.337891,0.13086 11.409946,3.1075497 0 0 1 0.002,0.002 11.409946,3.1075497 0 0 1 0.105469,0.0449 11.409946,3.1075497 0 0 1 0.01367,0.008 11.409946,3.1075497 0 0 1 0.191406,0.0859 11.409946,3.1075497 0 0 1 0.03516,0.0156 11.409946,3.1075497 0 0 1 0.0625,0.0254 11.409946,3.1075497 0 0 1 0.04687,0.0273 11.409946,3.1075497 0 0 1 0.0957,0.0469 11.409946,3.1075497 0 0 1 0.0098,0.008 11.409946,3.1075497 0 0 1 0.08203,0.043 11.409946,3.1075497 0 0 1 0.01758,0.008 11.409946,3.1075497 0 0 1 0.02539,0.0117 11.409946,3.1075497 0 0 1 0.07031,0.041 11.409946,3.1075497 0 0 1 0.05859,0.0332 11.409946,3.1075497 0 0 1 0.03516,0.0234 11.409946,3.1075497 0 0 1 0.04492,0.0254 11.409946,3.1075497 0 0 1 0.04102,0.0273 11.409946,3.1075497 0 0 1 0.0039,0.002 11.409946,3.1075497 0 0 1 0.07227,0.0469 11.409946,3.1075497 0 0 1 0.01172,0.008 11.409946,3.1075497 0 0 1 0.06055,0.041 11.409946,3.1075497 0 0 1 0.201172,0.15234 11.409946,3.1075497 0 0 1 0.02734,0.0254 11.409946,3.1075497 0 0 1 0.002,0.002 11.409946,3.1075497 0 0 1 0.0098,0.008 11.409946,3.1075497 0 0 1 0.05664,0.0508 11.409946,3.1075497 0 0 1 0.0098,0.008 11.409946,3.1075497 0 0 1 0.01172,0.0117 11.409946,3.1075497 0 0 1 0.08203,0.0781 11.409946,3.1075497 0 0 1 0.07031,0.0801 11.409946,3.1075497 0 0 1 0.0039,0.006 11.409946,3.1075497 0 0 1 0.01758,0.0234 11.409946,3.1075497 0 0 1 0.03125,0.0371 11.409946,3.1075497 0 0 1 0.01367,0.0156 11.409946,3.1075497 0 0 1 0.03125,0.0449 11.409946,3.1075497 0 0 1 0.02539,0.0332 11.409946,3.1075497 0 0 1 0.01563,0.0273 11.409946,3.1075497 0 0 1 0.01953,0.0274 11.409946,3.1075497 0 0 1 0.0293,0.0547 11.409946,3.1075497 0 0 1 0.01367,0.0254 11.409946,3.1075497 0 0 1 0.0059,0.008 11.409946,3.1075497 0 0 1 0.02148,0.043 11.409946,3.1075497 0 0 1 0.0059,0.0156 11.409946,3.1075497 0 0 1 0.01563,0.0371 11.409946,3.1075497 0 0 1 0.0098,0.0234 11.409946,3.1075497 0 0 1 0.01758,0.0566 11.409946,3.1075497 0 0 1 0,0.002 11.409946,3.1075497 0 0 1 0.01367,0.0527 11.409946,3.1075497 0 0 1 0.002,0.008 11.409946,3.1075497 0 0 1 0.0098,0.0469 11.409946,3.1075497 0 0 1 0.002,0.0156 11.409946,3.1075497 0 0 1 0.0059,0.0371 11.409946,3.1075497 0 0 1 0.002,0.0234 11.409946,3.1075497 0 0 1 0,0.0352 11.409946,3.1075497 0 0 1 0,0.002 11.409946,3.1075497 0 0 1 0,0.002 11.409946,3.1075497 0 0 1 0,0.002 11.409946,3.1075497 0 0 1 0,0.002 11.409946,3.1075497 0 0 1 0,0.002 11.409946,3.1075497 0 0 1 0,0.002 11.409946,3.1075497 0 0 1 0,0.002 11.409946,3.1075497 0 0 1 0,0.002 11.409946,3.1075497 0 0 1 0,0.002 11.409946,3.1075497 0 0 1 0,0.002 11.409946,3.1075497 0 0 1 0,0.002 11.409946,3.1075497 0 0 1 0,0.002 11.409946,3.1075497 0 0 1 0,0.002 v 2.39063 c 0.412071,-0.17764 0.824023,-0.37062 1.228516,-0.58594 l 18.041016,-9.60742 8.666015,4.61523 c 0.01828,-3.32089 0.0359,-6.64222 0.05273,-9.96289 a 11.409946,3.1075497 0 0 0 0.06445,0 11.409946,3.1075497 0 0 0 11.410156,-3.10547 v -3.10937 a 11.409946,3.1075497 0 0 0 -2.511719,-1.94531 11.409946,3.1075497 0 0 0 2.511719,-1.94141 v -3.10742 a 11.409946,3.1075497 0 0 0 -2.509766,-1.94727 11.409946,3.1075497 0 0 0 2.509766,-1.93945 v -3.10938 a 11.409946,3.1075497 0 0 0 -11.410156,-3.10742 z"
         transform="scale(0.26458333)" />
      <path
         id="path51759"
         style="fill:#2e3434;fill-opacity:0.34902;stroke:none;stroke-width:0.0598302;stroke-miterlimit:4;stroke-dasharray:none"
         d="m 7.6524571,221.27904 a 3.0188815,0.82220586 0 0 0 -3.0188796,0.82233 v 0.82234 a 3.0188815,0.82220586 0 0 0 3.0188796,0.82188 3.0188815,0.82220586 0 0 0 3.0188879,-0.82188 v -0.82234 a 3.0188815,0.82220586 0 0 0 -3.0188879,-0.82233 z" />
      <path
         id="path51761"
         style="fill:#2e3434;fill-opacity:0.34902;stroke:none;stroke-width:0.0598302;stroke-miterlimit:4;stroke-dasharray:none"
         d="m 7.6524571,219.42832 a 3.0188815,0.82220586 0 0 0 -3.0188796,0.82233 v 0.82234 a 3.0188815,0.82220586 0 0 0 3.0188796,0.82188 3.0188815,0.82220586 0 0 0 3.0188879,-0.82188 v -0.82234 a 3.0188815,0.82220586 0 0 0 -3.0188879,-0.82233 z" />
      <path
         id="path51763"
         style="fill:#2e3434;fill-opacity:0.34902;stroke:none;stroke-width:0.0598302;stroke-miterlimit:4;stroke-dasharray:none"
         d="m 7.6524571,217.5776 a 3.0188815,0.82220586 0 0 0 -3.0188796,0.82233 v 0.82235 a 3.0188815,0.82220586 0 0 0 3.0188796,0.82188 3.0188815,0.82220586 0 0 0 3.0188879,-0.82188 v -0.82235 A 3.0188815,0.82220586 0 0 0 7.6524571,217.5776 Z" />
      <path
         id="path51769"
         style="fill:#2e3436;stroke-width:0.317586;stroke-linecap:round;stroke-linejoin:round"
         d="m 15.099129,216.79496 c -1.375134,0.002 -2.75021,0.004 -4.125384,0.006 l 2.293058,1.22126 -2.5678,1.36735 a 3.0188815,0.82220587 0 0 1 0.0327,0.0153 3.0188815,0.82220587 0 0 1 0.131639,0.0696 3.0188815,0.82220587 0 0 1 0.08238,0.0544 3.0188815,0.82220587 0 0 1 0.02421,0.0183 3.0188815,0.82220587 0 0 1 4.34e-4,0 3.0188815,0.82220587 0 0 1 0.02208,0.0187 3.0188815,0.82220587 0 0 1 0.02165,0.0183 3.0188815,0.82220587 0 0 1 0.01061,0.0106 3.0188815,0.82220587 0 0 1 0.0085,0.008 3.0188815,0.82220587 0 0 1 0.01783,0.0191 3.0188815,0.82220587 0 0 1 0.01613,0.0187 3.0188815,0.82220587 0 0 1 0.01444,0.0195 3.0188815,0.82220587 0 0 1 0.02378,0.0386 3.0188815,0.82220587 0 0 1 0.0093,0.0191 3.0188815,0.82220587 0 0 1 0.0072,0.0195 3.0188815,0.82220587 0 0 1 0.0051,0.0157 3.0188815,0.82220587 0 0 1 8.7e-4,0.003 3.0188815,0.82220587 0 0 1 0.0025,0.009 3.0188815,0.82220587 0 0 1 4.35e-4,0.003 3.0188815,0.82220587 0 0 1 0.0017,0.009 3.0188815,0.82220587 0 0 1 0.0017,0.0123 3.0188815,0.82220587 0 0 1 4.35e-4,0.006 3.0188815,0.82220587 0 0 1 4.35e-4,0.006 3.0188815,0.82220587 0 0 1 4.35e-4,0.0127 v 0.82253 a 3.0188815,0.82220587 0 0 1 -0.664563,0.51296 3.0188815,0.82220587 0 0 1 0.06964,0.0251 3.0188815,0.82220587 0 0 1 0.0102,0.003 3.0188815,0.82220587 0 0 1 0.0896,0.0344 3.0188815,0.82220587 0 0 1 4.35e-4,8.7e-4 3.0188815,0.82220587 0 0 1 0.02803,0.0115 3.0188815,0.82220587 0 0 1 0.0034,0.002 3.0188815,0.82220587 0 0 1 0.05053,0.0225 3.0188815,0.82220587 0 0 1 0.0098,0.004 3.0188815,0.82220587 0 0 1 0.01613,0.007 3.0188815,0.82220587 0 0 1 0.0123,0.007 3.0188815,0.82220587 0 0 1 0.02548,0.0127 3.0188815,0.82220587 0 0 1 0.0025,0.002 3.0188815,0.82220587 0 0 1 0.02166,0.011 3.0188815,0.82220587 0 0 1 0.0051,0.003 3.0188815,0.82220587 0 0 1 0.0064,0.003 3.0188815,0.82220587 0 0 1 0.01868,0.0106 3.0188815,0.82220587 0 0 1 0.01528,0.008 3.0188815,0.82220587 0 0 1 0.0098,0.006 3.0188815,0.82220587 0 0 1 0.01146,0.007 3.0188815,0.82220587 0 0 1 0.01104,0.007 3.0188815,0.82220587 0 0 1 8.7e-4,8.7e-4 3.0188815,0.82220587 0 0 1 0.01911,0.0119 3.0188815,0.82220587 0 0 1 0.0034,0.003 3.0188815,0.82220587 0 0 1 0.01572,0.011 3.0188815,0.82220587 0 0 1 0.0535,0.0399 3.0188815,0.82220587 0 0 1 0.0072,0.007 3.0188815,0.82220587 0 0 1 4.35e-4,4.3e-4 3.0188815,0.82220587 0 0 1 0.0025,0.002 3.0188815,0.82220587 0 0 1 0.01487,0.0136 3.0188815,0.82220587 0 0 1 0.0025,0.002 3.0188815,0.82220587 0 0 1 0.0034,0.003 3.0188815,0.82220587 0 0 1 0.02124,0.0208 3.0188815,0.82220587 0 0 1 0.01911,0.0208 3.0188815,0.82220587 0 0 1 8.69e-4,0.002 3.0188815,0.82220587 0 0 1 0.0051,0.006 3.0188815,0.82220587 0 0 1 0.0081,0.01 3.0188815,0.82220587 0 0 1 0.0034,0.004 3.0188815,0.82220587 0 0 1 0.0085,0.0114 3.0188815,0.82220587 0 0 1 0.0064,0.009 3.0188815,0.82220587 0 0 1 0.0042,0.006 3.0188815,0.82220587 0 0 1 0.0051,0.008 3.0188815,0.82220587 0 0 1 0.0081,0.0144 3.0188815,0.82220587 0 0 1 0.0034,0.006 3.0188815,0.82220587 0 0 1 0.0017,0.003 3.0188815,0.82220587 0 0 1 0.0055,0.011 3.0188815,0.82220587 0 0 1 0.0017,0.004 3.0188815,0.82220587 0 0 1 0.0042,0.01 3.0188815,0.82220587 0 0 1 0.0025,0.006 3.0188815,0.82220587 0 0 1 0.0047,0.0153 3.0188815,0.82220587 0 0 1 0,4.4e-4 3.0188815,0.82220587 0 0 1 0.0034,0.014 3.0188815,0.82220587 0 0 1 4.35e-4,0.002 3.0188815,0.82220587 0 0 1 0.0025,0.0123 3.0188815,0.82220587 0 0 1 4.35e-4,0.004 3.0188815,0.82220587 0 0 1 0.0017,0.0106 3.0188815,0.82220587 0 0 1 4.35e-4,0.006 3.0188815,0.82220587 0 0 1 4.35e-4,0.009 3.0188815,0.82220587 0 0 1 0,4.3e-4 3.0188815,0.82220587 0 0 1 0,4.4e-4 3.0188815,0.82220587 0 0 1 0,4.3e-4 3.0188815,0.82220587 0 0 1 0,4.4e-4 3.0188815,0.82220587 0 0 1 0,4.3e-4 3.0188815,0.82220587 0 0 1 0,4.4e-4 3.0188815,0.82220587 0 0 1 0,4.3e-4 3.0188815,0.82220587 0 0 1 0,4.4e-4 3.0188815,0.82220587 0 0 1 0,4.3e-4 3.0188815,0.82220587 0 0 1 0,4.3e-4 3.0188815,0.82220587 0 0 1 0,4.4e-4 3.0188815,0.82220587 0 0 1 0,4.3e-4 3.0188815,0.82220587 0 0 1 0,4.4e-4 3.0188815,0.82220587 0 0 1 0,4.3e-4 3.0188815,0.82220587 0 0 1 0,4.4e-4 3.0188815,0.82220587 0 0 1 0,4.3e-4 3.0188815,0.82220587 0 0 1 0,4.4e-4 v 0.63271 c 0.109028,-0.047 0.217827,-0.098 0.32485,-0.15499 l 4.773386,-2.54232 2.293059,1.22126 c 0.0043,-0.79068 0.0083,-1.58141 0.01231,-2.37204 a 3.0188815,0.82220587 0 0 1 -0.42549,0.008 3.0188815,0.82220587 0 0 1 -3.018769,-0.8221 v -0.82211 a 3.0188815,0.82220587 0 0 1 0.0047,-0.0191 z" />
      <path
         id="path51771"
         style="fill:#2e3436;stroke-width:0.317586;stroke-linecap:round;stroke-linejoin:round"
         d="m 10.882023,220.96621 a 3.0188815,0.82220587 0 0 1 -0.410629,0.18556 3.0188815,0.82220587 0 0 1 0.01657,0.006 3.0188815,0.82220587 0 0 1 0.0064,0.003 3.0188815,0.82220587 0 0 1 0.0098,0.003 3.0188815,0.82220587 0 0 1 0.0047,0.002 3.0188815,0.82220587 0 0 1 0.01146,0.004 3.0188815,0.82220587 0 0 1 0.0017,4.3e-4 3.0188815,0.82220587 0 0 1 0.01402,0.006 3.0188815,0.82220587 0 0 1 0.01572,0.006 3.0188815,0.82220587 0 0 1 0.0068,0.003 3.0188815,0.82220587 0 0 1 0.02165,0.008 3.0188815,0.82220587 0 0 1 0.01698,0.007 3.0188815,0.82220587 0 0 1 0.0047,0.002 3.0188815,0.82220587 0 0 1 0.01061,0.004 3.0188815,0.82220587 0 0 1 0.0025,8.6e-4 3.0188815,0.82220587 0 0 1 0.02633,0.0111 3.0188815,0.82220587 0 0 1 0.0064,0.003 3.0188815,0.82220587 0 0 1 0.02166,0.009 3.0188815,0.82220587 0 0 1 0.01061,0.004 3.0188815,0.82220587 0 0 1 0.03057,0.0132 3.0188815,0.82220587 0 0 1 0.0123,0.006 3.0188815,0.82220587 0 0 1 0.01402,0.006 3.0188815,0.82220587 0 0 1 0.0051,0.002 3.0188815,0.82220587 0 0 1 0.02081,0.0106 3.0188815,0.82220587 0 0 1 0.0081,0.004 3.0188815,0.82220587 0 0 1 0.01698,0.009 3.0188815,0.82220587 0 0 1 0.01146,0.006 3.0188815,0.82220587 0 0 1 8.7e-4,4.3e-4 3.0188815,0.82220587 0 0 1 0.0055,0.003 3.0188815,0.82220587 0 0 1 0.01783,0.009 3.0188815,0.82220587 0 0 1 0.0025,0.002 3.0188815,0.82220587 0 0 1 0.01996,0.0119 3.0188815,0.82220587 0 0 1 0.0055,0.003 3.0188815,0.82220587 0 0 1 0.01657,0.01 3.0188815,0.82220587 0 0 1 0.0085,0.006 3.0188815,0.82220587 0 0 1 0.01274,0.008 3.0188815,0.82220587 0 0 1 0.0034,0.002 3.0188815,0.82220587 0 0 1 0.01657,0.011 3.0188815,0.82220587 0 0 1 0.0102,0.006 3.0188815,0.82220587 0 0 1 0.0038,0.003 3.0188815,0.82220587 0 0 1 0.01487,0.0106 3.0188815,0.82220587 0 0 1 0.0068,0.005 3.0188815,0.82220587 0 0 1 0.02887,0.0221 3.0188815,0.82220587 0 0 1 0.0077,0.006 3.0188815,0.82220587 0 0 1 8.69e-4,8.6e-4 3.0188815,0.82220587 0 0 1 0.0022,0.002 3.0188815,0.82220587 0 0 1 0.0059,0.005 3.0188815,0.82220587 0 0 1 0.0017,0.002 3.0188815,0.82220587 0 0 1 0.0064,0.006 3.0188815,0.82220587 0 0 1 0.0051,0.004 3.0188815,0.82220587 0 0 1 0.0102,0.01 3.0188815,0.82220587 0 0 1 0.0068,0.006 3.0188815,0.82220587 0 0 1 0.01487,0.0149 3.0188815,0.82220587 0 0 1 8.69e-4,8.7e-4 3.0188815,0.82220587 0 0 1 0.01189,0.0127 3.0188815,0.82220587 0 0 1 0.0034,0.003 3.0188815,0.82220587 0 0 1 0.0089,0.0106 3.0188815,0.82220587 0 0 1 0.0051,0.006 3.0188815,0.82220587 0 0 1 0.01189,0.0153 3.0188815,0.82220587 0 0 1 0,4.3e-4 3.0188815,0.82220587 0 0 1 0.0098,0.0136 3.0188815,0.82220587 0 0 1 0.0017,0.003 3.0188815,0.82220587 0 0 1 0.0072,0.0111 3.0188815,0.82220587 0 0 1 0.0025,0.004 3.0188815,0.82220587 0 0 1 0.0017,0.003 3.0188815,0.82220587 0 0 1 0.0025,0.006 3.0188815,0.82220587 0 0 1 8.7e-4,0.002 3.0188815,0.82220587 0 0 1 0.003,0.007 3.0188815,0.82220587 0 0 1 0.0068,0.0144 3.0188815,0.82220587 0 0 1 8.7e-4,0.002 3.0188815,0.82220587 0 0 1 0.0047,0.0123 3.0188815,0.82220587 0 0 1 0.0017,0.003 3.0188815,0.82220587 0 0 1 0.0034,0.0106 3.0188815,0.82220587 0 0 1 0.0017,0.006 3.0188815,0.82220587 0 0 1 0.0042,0.0157 3.0188815,0.82220587 0 0 1 0,4.4e-4 3.0188815,0.82220587 0 0 1 0.0022,0.0136 3.0188815,0.82220587 0 0 1 4.35e-4,0.003 3.0188815,0.82220587 0 0 1 0.0017,0.011 3.0188815,0.82220587 0 0 1 4.35e-4,0.005 3.0188815,0.82220587 0 0 1 4.35e-4,0.009 3.0188815,0.82220587 0 0 1 0,4.4e-4 3.0188815,0.82220587 0 0 1 4.35e-4,0 3.0188815,0.82220587 0 0 1 0,4.3e-4 3.0188815,0.82220587 0 0 1 0,4.4e-4 3.0188815,0.82220587 0 0 1 0,4.3e-4 3.0188815,0.82220587 0 0 1 0,4.4e-4 3.0188815,0.82220587 0 0 1 0,4.3e-4 3.0188815,0.82220587 0 0 1 0,4.4e-4 3.0188815,0.82220587 0 0 1 0,4.3e-4 3.0188815,0.82220587 0 0 1 0,4.4e-4 3.0188815,0.82220587 0 0 1 0,4.3e-4 3.0188815,0.82220587 0 0 1 0,4.4e-4 3.0188815,0.82220587 0 0 1 0,4.3e-4 3.0188815,0.82220587 0 0 1 0,4.4e-4 3.0188815,0.82220587 0 0 1 0,4.3e-4 3.0188815,0.82220587 0 0 1 0,4.4e-4 3.0188815,0.82220587 0 0 1 0,4.3e-4 3.0188815,0.82220587 0 0 1 0,4.4e-4 3.0188815,0.82220587 0 0 1 -4.35e-4,4.3e-4 v 0.8221 a 3.0188815,0.82220587 0 0 1 -0.04034,0.13164 3.0188815,0.82220587 0 0 1 -0.0064,0.009 3.0188815,0.82220587 0 0 1 -0.114652,0.12315 3.0188815,0.82220587 0 0 1 -0.0077,0.006 3.0188815,0.82220587 0 0 1 -0.467529,0.2344 3.0188815,0.82220587 0 0 1 -0.0034,0.002 3.0188815,0.82220587 0 0 1 -0.0055,0.002 3.0188815,0.82220587 0 0 1 -0.329097,0.0972 3.0188815,0.82220587 0 0 1 -0.003,8.7e-4 3.0188815,0.82220587 0 0 1 -0.0034,8.7e-4 3.0188815,0.82220587 0 0 1 -0.8301725,0.14693 l 3.9419395,2.099 -2.293061,1.22127 c 1.374463,0.002 2.748837,0.004 4.123263,0.006 a 3.0188815,0.82220587 0 0 1 0.661164,-0.48536 3.0188815,0.82220587 0 0 1 -0.664986,-0.51424 v -0.82211 a 3.0188815,0.82220587 0 0 1 0.665412,-0.51466 3.0188815,0.82220587 0 0 1 -0.665412,-0.51382 v -0.56477 l -3.632376,-1.93424 c -0.189552,-0.10094 -0.383385,-0.18324 -0.577936,-0.25266 z" />
      <path
         id="path51773"
         style="fill:#2e3436;fill-opacity:1;stroke:none;stroke-width:0.0598302;stroke-miterlimit:4;stroke-dasharray:none"
         d="m 7.6524571,220.8442 a 3.0188815,0.82220586 0 0 0 -3.0188796,0.82234 v 0.82234 a 3.0188815,0.82220586 0 0 0 3.0188796,0.82187 3.0188815,0.82220586 0 0 0 3.0188879,-0.82187 v -0.82234 A 3.0188815,0.82220586 0 0 0 7.6524571,220.8442 Z" />
      <path
         id="path51775"
         style="fill:#2e3436;fill-opacity:1;stroke:none;stroke-width:0.0598302;stroke-miterlimit:4;stroke-dasharray:none"
         d="m 7.6524571,218.99348 a 3.0188815,0.82220586 0 0 0 -3.0188796,0.82234 v 0.82234 a 3.0188815,0.82220586 0 0 0 3.0188796,0.82188 3.0188815,0.82220586 0 0 0 3.0188879,-0.82188 v -0.82234 a 3.0188815,0.82220586 0 0 0 -3.0188879,-0.82234 z" />
      <path
         id="path51777"
         style="fill:#2e3436;fill-opacity:1;stroke:none;stroke-width:0.0598302;stroke-miterlimit:4;stroke-dasharray:none"
         d="m 7.6524571,217.14277 a 3.0188815,0.82220586 0 0 0 -3.0188796,0.82234 v 0.82233 a 3.0188815,0.82220586 0 0 0 3.0188796,0.82188 3.0188815,0.82220586 0 0 0 3.0188879,-0.82188 v -0.82233 a 3.0188815,0.82220586 0 0 0 -3.0188879,-0.82234 z" />
      <path
         id="path54509"
         style="fill:#2e3436;fill-opacity:1;stroke:none;stroke-width:0.0598301;stroke-miterlimit:4;stroke-dasharray:none"
         d="m 18.545942,221.63841 a 3.0188815,0.82220586 0 0 0 -3.018773,0.8221 v 0.82254 a 3.0188815,0.82220586 0 0 0 0.665412,0.51381 3.0188815,0.82220586 0 0 0 -0.665412,0.51466 v 0.8221 a 3.0188815,0.82220586 0 0 0 0.664985,0.51425 3.0188815,0.82220586 0 0 0 -0.664985,0.51424 v 0.82252 a 3.0188815,0.82220586 0 0 0 3.018773,0.82169 3.0188815,0.82220586 0 0 0 3.018764,-0.82169 v -0.82252 a 3.0188815,0.82220586 0 0 0 -0.664558,-0.51467 3.0188815,0.82220586 0 0 0 0.664558,-0.51382 v -0.8221 a 3.0188815,0.82220586 0 0 0 -0.664139,-0.51509 3.0188815,0.82220586 0 0 0 0.664139,-0.51338 v -0.82254 a 3.0188815,0.82220586 0 0 0 -3.018764,-0.8221 z" />
      <g
         id="g54523"
         transform="matrix(0.82172991,0,0,0.82172991,168.41452,11.942963)">
        <path
           id="path54517"
           style="fill:#2e3436;fill-opacity:1;stroke:none;stroke-width:0.07281;stroke-miterlimit:4;stroke-dasharray:none"
           d="m -182.37926,247.78678 a 3.6738124,1.0005792 0 0 0 -3.67381,1.00074 v 1.00074 a 3.6738124,1.0005792 0 0 0 3.67381,1.00018 3.6738124,1.0005792 0 0 0 3.67382,-1.00018 v -1.00074 a 3.6738124,1.0005792 0 0 0 -3.67382,-1.00074 z" />
        <path
           id="path54519"
           style="fill:#2e3436;fill-opacity:1;stroke:none;stroke-width:0.07281;stroke-miterlimit:4;stroke-dasharray:none"
           d="m -182.37926,245.53456 a 3.6738124,1.0005792 0 0 0 -3.67381,1.00074 v 1.00074 a 3.6738124,1.0005792 0 0 0 3.67381,1.00018 3.6738124,1.0005792 0 0 0 3.67382,-1.00018 v -1.00074 a 3.6738124,1.0005792 0 0 0 -3.67382,-1.00074 z" />
        <path
           id="path54521"
           style="fill:#2e3436;fill-opacity:1;stroke:none;stroke-width:0.07281;stroke-miterlimit:4;stroke-dasharray:none"
           d="m -182.37926,243.28234 a 3.6738124,1.0005792 0 0 0 -3.67381,1.00074 v 1.00074 a 3.6738124,1.0005792 0 0 0 3.67381,1.00018 3.6738124,1.0005792 0 0 0 3.67382,-1.00018 v -1.00074 a 3.6738124,1.0005792 0 0 0 -3.67382,-1.00074 z" />
      </g>
    </g>
  </g>
</svg>
