/* XPM */
static char * robot_xpm[] = {
"21 19 9 1",
" 	c None",
".	c #F91616",
"+	c #E3E3E3",
"@	c #848484",
"#	c #FFFFFF",
"$	c #CECECE",
"%	c #EA1722",
"&	c #19E53E",
"*	c #00FF26",
"         ...         ",
"         ...         ",
"      +@@@@@@@+      ",
"    @@@@@@@@@@@@@    ",
"   @@@@##@@@##@@@@   ",
"   @@@@@@@@@@@@@@@   ",
"    @@@@@###@@@@@    ",
"      +@@@@@@@+      ",
"       +@@@@@+    @ @",
"     $@@@@@@@@@$  @@@",
"    @@@@@@@@@@@@@  @ ",
"    @@@@##%##@@@@  @ ",
"   @@@@@&#%#%@@@@@ @ ",
" @@@@@@@&#%#%@@@@@@@ ",
" @ @@@@*******@@@@   ",
" @  @@@@@@@@@@@@@    ",
" @  @@@@@@@@@@@@@    ",
"@@@  $@@@@@@@@@$     ",
"@ @    $@@@@@$       "};
