/* XPM */
static const char * teg_icono_xpm[] = {
"49 48 839 2",
"  	c None",
". 	c #BA833A",
"+ 	c #C28D40",
"@ 	c #B99055",
"# 	c #C88C3B",
"$ 	c #D4A154",
"% 	c #D79B38",
"& 	c #CF9B50",
"* 	c #B76B30",
"= 	c #C97536",
"- 	c #CF7D2C",
"; 	c #D3832D",
"> 	c #D08C3E",
", 	c #C2813F",
"' 	c #C47D3C",
") 	c #BD7333",
"! 	c #BC7538",
"~ 	c #CD8D2E",
"{ 	c #D18A2B",
"] 	c #D18129",
"^ 	c #D0852E",
"/ 	c #D68F35",
"( 	c #DA9432",
"_ 	c #CD7A2A",
": 	c #C06325",
"< 	c #C66E28",
"[ 	c #CC7428",
"} 	c #CE7E29",
"| 	c #C27325",
"1 	c #BA6822",
"2 	c #C56C27",
"3 	c #CA732D",
"4 	c #C88846",
"5 	c #D28D35",
"6 	c #C99049",
"7 	c #D09238",
"8 	c #DD9C34",
"9 	c #DB902F",
"0 	c #CA7527",
"a 	c #BC6B25",
"b 	c #C37329",
"c 	c #D2832D",
"d 	c #D1882F",
"e 	c #C5772A",
"f 	c #D79334",
"g 	c #D48D31",
"h 	c #D4902F",
"i 	c #CF8D2C",
"j 	c #BC7525",
"k 	c #C16F27",
"l 	c #CD7E2B",
"m 	c #D1862C",
"n 	c #D98331",
"o 	c #D5883B",
"p 	c #BD894C",
"q 	c #BF7626",
"r 	c #D79534",
"s 	c #DD9A37",
"t 	c #D3892E",
"u 	c #B96C24",
"v 	c #AE6320",
"w 	c #B06421",
"x 	c #D59033",
"y 	c #DC9F3A",
"z 	c #DFA138",
"A 	c #E7AE3F",
"B 	c #E3AA3C",
"C 	c #E4AD37",
"D 	c #E8AE36",
"E 	c #E3A734",
"F 	c #E39B34",
"G 	c #DC9432",
"H 	c #D79130",
"I 	c #D67429",
"J 	c #D77C2B",
"K 	c #D99038",
"L 	c #CF9952",
"M 	c #9F7842",
"N 	c #A64915",
"O 	c #C2601D",
"P 	c #D2812B",
"Q 	c #DB9134",
"R 	c #D1892E",
"S 	c #CF8F2D",
"T 	c #D8942E",
"U 	c #DD9D33",
"V 	c #E4A93B",
"W 	c #E5AB40",
"X 	c #E6AC3F",
"Y 	c #E6AD3E",
"Z 	c #E6AE3C",
"` 	c #E6B13A",
" .	c #E7B339",
"..	c #E9B438",
"+.	c #EDB238",
"@.	c #EBAD37",
"#.	c #E59C32",
"$.	c #D79A31",
"%.	c #D58F2C",
"&.	c #E29C35",
"*.	c #DE9736",
"=.	c #D58B32",
"-.	c #C78529",
";.	c #C67F31",
">.	c #B9651E",
",.	c #C16C22",
"'.	c #D07D2C",
").	c #DA9632",
"!.	c #E3A836",
"~.	c #E6A937",
"{.	c #E6AB39",
"].	c #E6AC3E",
"^.	c #E6AC3B",
"/.	c #E6AC38",
"(.	c #E7AD39",
"_.	c #E9AF38",
":.	c #E8B338",
"<.	c #EEB638",
"[.	c #EEB338",
"}.	c #E6A836",
"|.	c #E4A738",
"1.	c #E5A937",
"2.	c #E2A134",
"3.	c #D88B2B",
"4.	c #D57828",
"5.	c #DB8327",
"6.	c #925B17",
"7.	c #C0842A",
"8.	c #D99934",
"9.	c #DB9730",
"0.	c #C57A28",
"a.	c #C87E29",
"b.	c #DA9834",
"c.	c #E5A638",
"d.	c #E6AA38",
"e.	c #E6AC3C",
"f.	c #E6AE3D",
"g.	c #E1AC38",
"h.	c #E0A235",
"i.	c #E3A537",
"j.	c #E6AC39",
"k.	c #EAB13B",
"l.	c #F1B83C",
"m.	c #F6C541",
"n.	c #FBCC43",
"o.	c #F9BA3B",
"p.	c #EBA635",
"q.	c #E3A838",
"r.	c #E7AC38",
"s.	c #E7AD38",
"t.	c #DF9D32",
"u.	c #D17827",
"v.	c #CD6B21",
"w.	c #8C4C18",
"x.	c #36281B",
"y.	c #CE8C2D",
"z.	c #DA9833",
"A.	c #D89434",
"B.	c #CF892D",
"C.	c #D59432",
"D.	c #E4AA3D",
"E.	c #E6AF3B",
"F.	c #E3AB38",
"G.	c #E4AA38",
"H.	c #E4AC3D",
"I.	c #DBA73B",
"J.	c #DA9E38",
"K.	c #DDA43C",
"L.	c #E5AC42",
"M.	c #F1BE49",
"N.	c #FBD24E",
"O.	c #F4C848",
"P.	c #E7AD3A",
"Q.	c #E7A434",
"R.	c #CF942F",
"S.	c #D19C33",
"T.	c #E4AA3A",
"U.	c #E8AA3C",
"V.	c #E39B33",
"W.	c #D07E28",
"X.	c #CC7825",
"Y.	c #D18339",
"Z.	c #B99269",
"`.	c #494237",
" +	c #9E6823",
".+	c #C8832B",
"++	c #CE872C",
"@+	c #CB7F2C",
"#+	c #D48C2F",
"$+	c #DF9D36",
"%+	c #E6AC41",
"&+	c #E6B03F",
"*+	c #E6B33A",
"=+	c #E6AF38",
"-+	c #E5AC3B",
";+	c #E3AE42",
">+	c #E2B14D",
",+	c #E1AC47",
"'+	c #E0AE44",
")+	c #E8B148",
"!+	c #F8CA50",
"~+	c #EFCD4E",
"{+	c #B48B32",
"]+	c #956822",
"^+	c #A67425",
"/+	c #A37626",
"(+	c #C99932",
"_+	c #DFA539",
":+	c #E5A43B",
"<+	c #E69C31",
"[+	c #E19831",
"}+	c #DF9230",
"|+	c #D9812D",
"1+	c #D6863F",
"2+	c #A07C59",
"3+	c #B97F2B",
"4+	c #B76821",
"5+	c #C27225",
"6+	c #D1862F",
"7+	c #DD9431",
"8+	c #E39F35",
"9+	c #E5A93E",
"0+	c #E6AF3F",
"a+	c #E6B13C",
"b+	c #E5B046",
"c+	c #EAC36A",
"d+	c #F2D26F",
"e+	c #F3D36F",
"f+	c #E4B753",
"g+	c #E1B54C",
"h+	c #FAD758",
"i+	c #D0AF45",
"j+	c #866121",
"k+	c #B37E2A",
"l+	c #DCAA39",
"m+	c #E4BB3D",
"n+	c #EDBB3F",
"o+	c #CA9532",
"p+	c #DB9B34",
"q+	c #E8A236",
"r+	c #E9A739",
"s+	c #E9A33E",
"t+	c #DC8532",
"u+	c #CE6C26",
"v+	c #AC602D",
"w+	c #2C2622",
"x+	c #B88841",
"y+	c #D79F39",
"z+	c #D89C33",
"A+	c #C07A24",
"B+	c #CE812C",
"C+	c #DC9B37",
"D+	c #DE9C34",
"E+	c #E3A436",
"F+	c #E4A83A",
"G+	c #E3A83D",
"H+	c #E2A63C",
"I+	c #E8B246",
"J+	c #F0CA5C",
"K+	c #FAE984",
"L+	c #F4E47A",
"M+	c #D3BE68",
"N+	c #A68540",
"O+	c #C0973E",
"P+	c #F7CD4F",
"Q+	c #D0A941",
"R+	c #986F27",
"S+	c #D79934",
"T+	c #EEBC41",
"U+	c #D7B03C",
"V+	c #E4B240",
"W+	c #B7862F",
"X+	c #C68B2F",
"Y+	c #E9A438",
"Z+	c #E9A539",
"`+	c #E8A43C",
" @	c #DE9033",
".@	c #C86624",
"+@	c #BF6827",
"@@	c #877667",
"#@	c #BD8744",
"$@	c #D69C3C",
"%@	c #DEA637",
"&@	c #CF942B",
"*@	c #D9912F",
"=@	c #D79A37",
"-@	c #D89A36",
";@	c #E0A640",
">@	c #E4AA3E",
",@	c #E3A43B",
"'@	c #E8A93F",
")@	c #F4CF55",
"!@	c #FDEF69",
"~@	c #ECDB64",
"{@	c #A59143",
"]@	c #856B34",
"^@	c #9F7832",
"/@	c #CE9737",
"(@	c #F0B541",
"_@	c #E2A73A",
":@	c #AA7728",
"<@	c #D39C35",
"[@	c #E6AE3F",
"}@	c #D0A43D",
"|@	c #E2B040",
"1@	c #B4872D",
"2@	c #AC7D29",
"3@	c #DF9E35",
"4@	c #E69F38",
"5@	c #E39A35",
"6@	c #D37729",
"7@	c #D17125",
"8@	c #BD9976",
"9@	c #201B15",
"0@	c #BE742A",
"a@	c #D89631",
"b@	c #E2AA36",
"c@	c #DB9830",
"d@	c #D99734",
"e@	c #D79D38",
"f@	c #D89D3A",
"g@	c #E0A645",
"h@	c #EEB342",
"i@	c #F6BD41",
"j@	c #F5C549",
"k@	c #EBC44E",
"l@	c #F7D75A",
"m@	c #C39F40",
"n@	c #906A29",
"o@	c #CAA13C",
"p@	c #E2B642",
"q@	c #D09635",
"r@	c #D39232",
"s@	c #DC9733",
"t@	c #C78D31",
"u@	c #E2AD3C",
"v@	c #F7BE45",
"w@	c #F4C747",
"x@	c #BD9032",
"y@	c #956E24",
"z@	c #997324",
"A@	c #D69A33",
"B@	c #E79D35",
"C@	c #E69C33",
"D@	c #E59832",
"E@	c #DA7D2A",
"F@	c #D47328",
"G@	c #C17B44",
"H@	c #514635",
"I@	c #B26124",
"J@	c #D2842C",
"K@	c #DE9A32",
"L@	c #DD9730",
"M@	c #DB9A35",
"N@	c #DEA03A",
"O@	c #E7AE41",
"P@	c #F3B642",
"Q@	c #FBC440",
"R@	c #F3BE3E",
"S@	c #B78C30",
"T@	c #9B7128",
"U@	c #DBA039",
"V@	c #D19735",
"W@	c #CA8E2F",
"X@	c #DFAD3C",
"Y@	c #A5812C",
"Z@	c #865F20",
"`@	c #BB7E28",
" #	c #CF8C2E",
".#	c #BA8530",
"+#	c #BF8C31",
"@#	c #CA9234",
"##	c #AC802D",
"$#	c #815B20",
"%#	c #B2812B",
"&#	c #CC9A30",
"*#	c #E4A635",
"=#	c #E79E34",
"-#	c #E69B33",
";#	c #E3912E",
">#	c #DA7B29",
",#	c #D16E27",
"'#	c #C5692C",
")#	c #AB804C",
"!#	c #000000",
"~#	c #866042",
"{#	c #A65A2A",
"]#	c #C16722",
"^#	c #D3802A",
"/#	c #D79E30",
"(#	c #D8A332",
"_#	c #EBAE3E",
":#	c #FCC445",
"<#	c #FEBE3E",
"[#	c #FAB639",
"}#	c #C18C2B",
"|#	c #895F1E",
"1#	c #AC7425",
"2#	c #DC9632",
"3#	c #E5A83C",
"4#	c #C59437",
"5#	c #795D22",
"6#	c #806422",
"7#	c #BB8A2C",
"8#	c #E5A033",
"9#	c #E09833",
"0#	c #CA8930",
"a#	c #9D6E25",
"b#	c #7C551C",
"c#	c #7A531B",
"d#	c #B67B2C",
"e#	c #DD9935",
"f#	c #E6A738",
"g#	c #EAA838",
"h#	c #E7A138",
"i#	c #E49734",
"j#	c #DE872B",
"k#	c #D77828",
"l#	c #CD6826",
"m#	c #C05A24",
"n#	c #B97D4E",
"o#	c #BB7523",
"p#	c #B66220",
"q#	c #AE4D19",
"r#	c #C25E1F",
"s#	c #CB792A",
"t#	c #D69B37",
"u#	c #DE9E33",
"v#	c #CA8F31",
"w#	c #936721",
"x#	c #A87724",
"y#	c #C78A2C",
"z#	c #AA7425",
"A#	c #C8862B",
"B#	c #DC9230",
"C#	c #E7A63D",
"D#	c #D19D3B",
"E#	c #A18132",
"F#	c #E5C655",
"G#	c #F9E057",
"H#	c #E8BA3F",
"I#	c #BC832A",
"J#	c #CD892C",
"K#	c #DF932E",
"L#	c #D88F2D",
"M#	c #DD962F",
"N#	c #E59A31",
"O#	c #E69B36",
"P#	c #E79D38",
"Q#	c #E7A136",
"R#	c #E69E35",
"S#	c #E29230",
"T#	c #DC832A",
"U#	c #D16F28",
"V#	c #C96526",
"W#	c #BC5321",
"X#	c #9A431B",
"Y#	c #060301",
"Z#	c #C38124",
"`#	c #C98429",
" $	c #B76622",
".$	c #BA581D",
"+$	c #C16022",
"@$	c #D18B2F",
"#$	c #CC8F30",
"$$	c #B57C2E",
"%$	c #A87428",
"&$	c #CA8B2C",
"*$	c #DD9632",
"=$	c #B27B28",
"-$	c #B17B27",
";$	c #D3932F",
">$	c #E09C36",
",$	c #E0A136",
"'$	c #CA9337",
")$	c #D9B250",
"!$	c #BF9C3B",
"~$	c #8A6220",
"{$	c #85581F",
"]$	c #C07F2B",
"^$	c #DB862A",
"/$	c #DC8A2C",
"($	c #E2962F",
"_$	c #E69B30",
":$	c #E69B32",
"<$	c #E59933",
"[$	c #E2912F",
"}$	c #DF8A2B",
"|$	c #DA7D28",
"1$	c #CA6223",
"2$	c #C56426",
"3$	c #C15C24",
"4$	c #A94B1E",
"5$	c #3B1E0F",
"6$	c #B97E26",
"7$	c #D49A2F",
"8$	c #CB8E2C",
"9$	c #B9631D",
"0$	c #BC6120",
"a$	c #C77B29",
"b$	c #CA8B30",
"c$	c #CC892D",
"d$	c #CC822B",
"e$	c #D68B2D",
"f$	c #E09531",
"g$	c #CB882D",
"h$	c #A27525",
"i$	c #C28F2C",
"j$	c #DB9631",
"k$	c #D38F2F",
"l$	c #A46D23",
"m$	c #7B511A",
"n$	c #754E1A",
"o$	c #976522",
"p$	c #C4822B",
"q$	c #D2832C",
"r$	c #D17728",
"s$	c #D47828",
"t$	c #DB852A",
"u$	c #DF8F2E",
"v$	c #E29030",
"w$	c #DF8C2E",
"x$	c #D77C2A",
"y$	c #D87928",
"z$	c #D97B28",
"A$	c #CD6D25",
"B$	c #BF571F",
"C$	c #BD5420",
"D$	c #C96C2B",
"E$	c #A15421",
"F$	c #130903",
"G$	c #A65C1C",
"H$	c #C9832A",
"I$	c #CE9131",
"J$	c #C57423",
"K$	c #CA892D",
"L$	c #D19635",
"M$	c #D18D2F",
"N$	c #CB7D29",
"O$	c #D98C2D",
"P$	c #DB912E",
"Q$	c #A97124",
"R$	c #A56F24",
"S$	c #C3832B",
"T$	c #8E571D",
"U$	c #8F571D",
"V$	c #B97828",
"W$	c #D59134",
"X$	c #D99232",
"Y$	c #CB7928",
"Z$	c #BF6322",
"`$	c #C16525",
" %	c #C96E27",
".%	c #C86B27",
"+%	c #C86B26",
"@%	c #CC6C26",
"#%	c #C76826",
"$%	c #CA6825",
"%%	c #C86523",
"&%	c #AE4B1B",
"*%	c #A44117",
"=%	c #AF481B",
"-%	c #B95F25",
";%	c #723F17",
">%	c #914A16",
",%	c #B66420",
"'%	c #BF6A24",
")%	c #BC6E22",
"!%	c #BF7628",
"~%	c #C5882F",
"{%	c #CE8A2D",
"]%	c #C67A28",
"^%	c #C87928",
"/%	c #D18429",
"(%	c #CC8728",
"_%	c #93621D",
":%	c #7A5319",
"<%	c #C6862B",
"[%	c #CA802B",
"}%	c #C16F26",
"|%	c #C37527",
"1%	c #D38F3C",
"2%	c #D9983D",
"3%	c #C77527",
"4%	c #B3541F",
"5%	c #AD5320",
"6%	c #BD6323",
"7%	c #AE5B20",
"8%	c #733D15",
"9%	c #864318",
"0%	c #92431A",
"a%	c #A44A1B",
"b%	c #AA4919",
"c%	c #A54218",
"d%	c #A54217",
"e%	c #933D16",
"f%	c #221005",
"g%	c #9B5916",
"h%	c #B25E1C",
"i%	c #B15A1B",
"j%	c #AF6C24",
"k%	c #B86E27",
"l%	c #BE7B27",
"m%	c #C68A2B",
"n%	c #C88729",
"o%	c #C27927",
"p%	c #C87D28",
"q%	c #CD8228",
"r%	c #C48126",
"s%	c #98651E",
"t%	c #8E5D1D",
"u%	c #C17D28",
"v%	c #C47828",
"w%	c #C17228",
"x%	c #C06F27",
"y%	c #C57127",
"z%	c #C87630",
"A%	c #CC8435",
"B%	c #B16125",
"C%	c #A4441A",
"D%	c #9E461C",
"E%	c #AB551F",
"F%	c #5D2E10",
"G%	c #120903",
"H%	c #1D0E05",
"I%	c #331709",
"J%	c #60270F",
"K%	c #893614",
"L%	c #9F3F17",
"M%	c #A64317",
"N%	c #AD4A18",
"O%	c #6E2D0F",
"P%	c #BC7920",
"Q%	c #C78024",
"R%	c #B0611C",
"S%	c #A8591E",
"T%	c #AE5B1F",
"U%	c #B66D1B",
"V%	c #B97720",
"W%	c #BC7B24",
"X%	c #BE7626",
"Y%	c #C37B25",
"Z%	c #C87F25",
"`%	c #CA8227",
" &	c #BC7A24",
".&	c #B87623",
"+&	c #C17825",
"@&	c #C17628",
"#&	c #B86925",
"$&	c #AA4E1D",
"%&	c #B0551F",
"&&	c #B45721",
"*&	c #B46024",
"=&	c #985325",
"-&	c #5D2811",
";&	c #4D1F0C",
">&	c #51260F",
",&	c #100803",
"'&	c #030100",
")&	c #170903",
"!&	c #401A0A",
"~&	c #5D250D",
"{&	c #682A0F",
"]&	c #642E0E",
"^&	c #271005",
"/&	c #B97224",
"(&	c #D19229",
"_&	c #BE7421",
":&	c #A54316",
"<&	c #A74616",
"[&	c #B46519",
"}&	c #B6661E",
"|&	c #BA7422",
"1&	c #BC7326",
"2&	c #B76F23",
"3&	c #B96F23",
"4&	c #C87D27",
"5&	c #C37924",
"6&	c #BE7021",
"7&	c #C06A22",
"8&	c #BD6A24",
"9&	c #B75E20",
"0&	c #A14219",
"a&	c #9A3F1A",
"b&	c #95451C",
"c&	c #763A18",
"d&	c #492915",
"e&	c #150B06",
"f&	c #090301",
"g&	c #090402",
"h&	c #080301",
"i&	c #100602",
"j&	c #140803",
"k&	c #0E0702",
"l&	c #9C5621",
"m&	c #C57C22",
"n&	c #BA631A",
"o&	c #A43B11",
"p&	c #AB5319",
"q&	c #BB6320",
"r&	c #BB6C20",
"s&	c #BE7125",
"t&	c #BC6822",
"u&	c #BB6A23",
"v&	c #BE6D24",
"w&	c #BD6721",
"x&	c #BC6420",
"y&	c #BB5E1F",
"z&	c #B55F1F",
"A&	c #8D4717",
"B&	c #692A0F",
"C&	c #42190A",
"D&	c #210E06",
"E&	c #120904",
"F&	c #080503",
"G&	c #010101",
"H&	c #742408",
"I&	c #A24311",
"J&	c #B75A16",
"K&	c #A83E10",
"L&	c #A43A11",
"M&	c #A74614",
"N&	c #B25519",
"O&	c #B4591B",
"P&	c #B75D1D",
"Q&	c #B6551A",
"R&	c #B6571A",
"S&	c #B7591B",
"T&	c #B95C1D",
"U&	c #B4531C",
"V&	c #AF4A19",
"W&	c #7E4925",
"X&	c #1D1007",
"Y&	c #040101",
"Z&	c #010000",
"`&	c #6B4E2E",
" *	c #91471D",
".*	c #A94713",
"+*	c #A84012",
"@*	c #A94314",
"#*	c #AB4E17",
"$*	c #AE5218",
"%*	c #B45619",
"&*	c #B35018",
"**	c #AF4C17",
"=*	c #B04E18",
"-*	c #B24E18",
";*	c #AC4817",
">*	c #973B18",
",*	c #712C12",
"'*	c #2A180D",
")*	c #91703C",
"!*	c #BB8235",
"~*	c #BF6C21",
"{*	c #B35A18",
"]*	c #AA4814",
"^*	c #AC4C16",
"/*	c #B35218",
"(*	c #B8591B",
"_*	c #B6581B",
":*	c #AC4A17",
"<*	c #AA4314",
"[*	c #A34416",
"}*	c #833916",
"|*	c #4E331D",
"1*	c #2F2016",
"2*	c #824F1E",
"3*	c #B36C24",
"4*	c #C47821",
"5*	c #AE4E13",
"6*	c #AA4413",
"7*	c #B35116",
"8*	c #B55616",
"9*	c #B05419",
"0*	c #A1461C",
"a*	c #873213",
"b*	c #55230D",
"c*	c #241209",
"d*	c #040201",
"e*	c #944419",
"f*	c #AB5018",
"g*	c #B66119",
"h*	c #AD4D12",
"i*	c #A84313",
"j*	c #AB4611",
"k*	c #AB460F",
"l*	c #9B4014",
"m*	c #6E3119",
"n*	c #36180D",
"o*	c #0B0502",
"p*	c #803B1C",
"q*	c #913710",
"r*	c #9E3E0F",
"s*	c #A43D10",
"t*	c #9F3610",
"u*	c #A53A0F",
"v*	c #A3390E",
"w*	c #782809",
"x*	c #200A02",
"y*	c #863D17",
"z*	c #9D4212",
"A*	c #AC4813",
"B*	c #B04814",
"C*	c #A64314",
"D*	c #A1370D",
"E*	c #8E320F",
"F*	c #411A0B",
"G*	c #050200",
"H*	c #843A18",
"I*	c #9C390F",
"J*	c #AF4715",
"K*	c #B4521B",
"L*	c #A0491F",
"M*	c #552C19",
"N*	c #0D0705",
"O*	c #704329",
"P*	c #8F3010",
"Q*	c #942907",
"R*	c #A13A10",
"S*	c #B24B18",
"T*	c #9A4617",
"U*	c #311D10",
"V*	c #802103",
"W*	c #922905",
"X*	c #9F3A0E",
"Y*	c #A13D11",
"Z*	c #9F4010",
"`*	c #562C14",
" =	c #441606",
".=	c #862F0B",
"+=	c #9E3C0D",
"@=	c #95340D",
"#=	c #903208",
"$=	c #4B1A04",
"%=	c #230C02",
"&=	c #651F05",
"*=	c #642008",
"==	c #3F1505",
"-=	c #120601",
"                                                                                                  ",
"                                                                                                  ",
"                                                                                                  ",
"                                            . + @                                                 ",
"                                # $ % & * = - ; > , ' ) !                                         ",
"                            ~ { ] ^ / ( _ : < [ } | 1 2 3 4 5 6                                   ",
"                          7 8 9 0 a b c d e f g h i j k l m n o p                                 ",
"                        q r s t u v w x y z A B C D E F G H I J K L M                             ",
"                      N O P Q R S T U V W X Y Z `  ...+.@.#.$.%.&.*.=.-.                          ",
"                      ;.>.,.'.).!.~.{.Y ].^././.(._.:.<.[.}.|.1.2.3.4.5.6.                        ",
"                  7.8.9.0.a.b.c.d./.e.f.g.h.i.j.k.l.m.n.o.p.q.r.s.t.u.v.w.x.                      ",
"                  y.z.A.B.C.D.E.F.G.e.H.I.J.K.L.M.N.O.P.Q.R.S.T.U.V.W.X.Y.Z.`.                    ",
"                 +.+++@+#+$+%+&+*+=+-+;+>+,+'+)+!+~+{+]+^+/+(+_+:+<+[+}+|+1+2+                    ",
"                3+4+5+6+7+8+9+0+a+Z b+c+d+e+f+g+h+i+j+k+l+m+n+o+p+q+r+s+t+u+v+w+                  ",
"            x+y+z+A+B+C+D+E+F+G+H+I+J+K+L+M+N+O+P+Q+R+S+T+U+V+W+X+Y+Z+`+ @.@+@@@                  ",
"            #@$@%@&@*@=@-@;@>@,@'@)@!@~@{@]@^@/@(@_@:@<@[@}@|@1@2@3@4@4@5@6@7@8@9@                ",
"            0@a@b@c@d@e@f@g@h@i@j@k@l@m@n@o@p@q@r@s@t@u@v@w@x@y@z@A@B@C@D@E@F@G@H@                ",
"            I@J@K@L@M@N@O@P@Q@R@S@T@U@V@W@X@Y@Z@`@ #.#+#@###$#%#&#*#=#-#;#>#,#'#)#!#              ",
"          ~#{#]#^#/#(#_#:#<#[#}#|#1#2#3#4#5#6#7#8#9#0#a#b#c#d#e#f#g#h#i#j#k#l#m#n#!#              ",
"          o#p#q#r#s#t#u#v#w#x#y#z#A#B#C#D#E#F#G#H#I#J#K#L#M#N#O#P#Q#R#S#T#U#V#W#X#Y#              ",
"          Z#`# $.$+$@$#$$$%$&$*$=$-$;$>$,$'$)$!$~${$]$^$/$($_$:$<$S#[$}$|$1$2$3$4$5$!#            ",
"          6$7$8$9$0$a$b$c$d$e$f$g$h$i$j$k$l$m$n$o$p$q$r$s$t$u$v$w$x$y$z$A$B$C$D$E$F$!#            ",
"          G$H$I$J$| K$L$M$a.N$O$P$Q$R$k$S$T$U$V$W$X$Y$Z$`$ %.%+%@%#%$%%%&%*%=%-%;%!#!#            ",
"          >%,%'%)%!%~%v#{%]%^%/%(%_%:%<%[%}%|%a$1%2%3%4%5%6%7%8%9%0%a%b%c%d%d%e%f%!#!#            ",
"          g%h%i%j%k%l%m%n%o%p%q%r%s%t%u%v%w%x%y%z%A%B%C%D%E%F%G%H%I%J%K%L%M%N%O%!#!#!#            ",
"          P%Q%R%S%T%U%V%W%X%Y%Z%`% &.&+&@&#&$&%&&&*&=&-&;&>&,&!#!#'&)&!&~&{&]&^&!#!#              ",
"          /&(&_&:&<&[&}&|&1&2&3&4&5&6&7&8&9&0&a&b&c&d&e&f&g&!#!#!#!#!#h&i&j&k&!#!#!#              ",
"          l&m&n&o&o&p&q&r&s&t&u&v&w&x&y&z&A&B&C&D&E&F&G&!#!#!#!#!#!#!#!#!#!#!#!#!#                ",
"          H&I&J&K&L&M&N&O&P&Q&R&S&T&U&V&W&X&h&Y&Z&!#!#!#!#!#!#!#                                  ",
"          `& *.*+*@*#*$*%*&***=*-*;*>*,*'*!#!#!#!#!#!#!#!#                                        ",
"          )*!*~*{*]*^*/*(*_*:*<*[*}*|*1*!#!#!#!#!#!#                                              ",
"          2*3*4&4*5*6*7*8*9*0*a*b*c*d*!#!#!#!#!#                                                  ",
"            e*f*g*h*i*j*k*l*m*n*o*!#!#!#!#!#                                                      ",
"            p*q*r*s*t*u*v*w*x*!#!#!#!#!#!#                                                        ",
"            y*z*A*B*C*D*E*F*G*!#!#!#!#                                                            ",
"            H*I*v*J*K*L*M*N*!#!#!#!#                                                              ",
"            O*P*Q*R*S*T*U*!#!#!#!#                                                                ",
"              V*W*X*Y*Z*`*!#!#!#                                                                  ",
"               =.=+=@=#=$=!#!#                                                                    ",
"                %=&=*===-=!#!#                                                                    ",
"                  !#!#!#!#!#                                                                      ",
"                      !#                                                                          ",
"                                                                                                  ",
"                                                                                                  ",
"                                                                                                  ",
"                                                                                                  ",
"                                                                                                  ",
"                                                                                                  "};
