<?xml version="1.0" standalone="no"?>
<!DOCTYPE svg PUBLIC "-//W3C//DTD SVG 20010904//EN"
 "http://www.w3.org/TR/2001/REC-SVG-20010904/DTD/svg10.dtd">
<svg version="1.0" xmlns="http://www.w3.org/2000/svg"
 width="80.000000pt" height="99.000000pt" viewBox="0 0 80.000000 99.000000"
 preserveAspectRatio="xMidYMid meet">
<metadata>
Created by potrace 1.11, written by Peter Selinger 2001-2013
</metadata>
<g transform="translate(0.000000,99.000000) scale(0.100000,-0.100000)"
fill="#000000" stroke="none">
<path d="M0 495 l0 -495 400 0 400 0 0 495 0 495 -400 0 -400 0 0 -495z m570
403 c0 -21 -7 -49 -15 -62 -20 -30 -27 -84 -14 -107 15 -29 67 -61 88 -54 30
9 57 62 76 150 9 44 18 85 20 91 4 14 45 26 45 13 0 -5 -5 -9 -11 -9 -5 0 -7
-4 -4 -10 3 -5 1 -10 -4 -10 -22 0 -4 -141 18 -148 17 -6 14 -118 -4 -136 -8
-8 -15 -22 -15 -30 0 -11 -9 -16 -30 -16 -16 0 -30 -4 -30 -10 0 -5 -7 -10
-15 -10 -9 0 -20 -11 -25 -24 -5 -13 -14 -26 -22 -28 -10 -4 -10 -13 2 -47 13
-40 12 -42 -8 -57 -12 -8 -20 -19 -17 -24 3 -4 -4 -10 -15 -13 -13 -3 -20 -14
-20 -30 0 -14 -4 -29 -10 -32 -5 -3 -10 -17 -10 -31 0 -20 -5 -24 -30 -24 -16
0 -30 -5 -30 -10 0 -6 -12 -21 -26 -34 -15 -12 -32 -38 -38 -57 -8 -25 -17
-35 -36 -37 -52 -6 -70 -13 -70 -27 0 -8 -7 -15 -15 -15 -8 0 -15 -9 -15 -20
0 -14 -7 -20 -22 -20 -21 1 -22 2 -5 14 24 18 21 26 -9 26 -14 0 -23 4 -20 9
8 13 -21 34 -39 27 -11 -4 -15 2 -15 24 0 17 5 30 10 30 6 0 10 5 10 11 0 6
-7 9 -15 5 -9 -3 -15 0 -15 9 0 8 5 15 10 15 6 0 10 5 10 10 0 6 -15 10 -32
10 -25 0 -29 3 -18 10 13 8 12 10 -2 10 -22 0 -23 14 -2 34 22 22 9 56 -21 56
-13 0 -25 -6 -28 -12 -2 -8 -8 -9 -13 -4 -5 5 -4 11 4 13 21 8 14 32 -8 26
-15 -4 -20 0 -20 16 0 12 7 24 15 27 24 9 17 24 -10 24 -20 0 -25 5 -25 25 0
14 5 25 10 25 6 0 10 7 10 16 0 14 -3 14 -15 4 -21 -18 -20 4 2 30 10 11 29
20 43 20 14 0 44 9 65 20 22 11 49 22 60 24 11 2 36 11 55 20 93 44 120 71
120 122 0 27 4 34 19 34 28 0 81 60 81 91 0 14 3 29 8 33 4 4 7 11 7 14 1 21
31 50 52 50 20 0 23 -5 23 -40z"/>
</g>
</svg>
